<?xml version="1.0" encoding="utf-8" standalone="no"?>
<!DOCTYPE svg PUBLIC "-//W3C//DTD SVG 1.1//EN"
  "http://www.w3.org/Graphics/SVG/1.1/DTD/svg11.dtd">
<svg xmlns:xlink="http://www.w3.org/1999/xlink" width="720.58125pt" height="392.514375pt" viewBox="0 0 720.58125 392.514375" xmlns="http://www.w3.org/2000/svg" version="1.1">
 <metadata>
  <rdf:RDF xmlns:dc="http://purl.org/dc/elements/1.1/" xmlns:cc="http://creativecommons.org/ns#" xmlns:rdf="http://www.w3.org/1999/02/22-rdf-syntax-ns#">
   <cc:Work>
    <dc:type rdf:resource="http://purl.org/dc/dcmitype/StillImage"/>
    <dc:date>2026-07-03T20:23:07.530175</dc:date>
    <dc:format>image/svg+xml</dc:format>
    <dc:creator>
     <cc:Agent>
      <dc:title>Matplotlib v3.10.1, https://matplotlib.org/</dc:title>
     </cc:Agent>
    </dc:creator>
   </cc:Work>
  </rdf:RDF>
 </metadata>
 <defs>
  <style type="text/css">*{stroke-linejoin: round; stroke-linecap: butt}</style>
 </defs>
 <g id="figure_1">
  <g id="patch_1">
   <path d="M 0 392.514375 
L 720.58125 392.514375 
L 720.58125 0 
L 0 0 
z
" style="fill: #ffffff"/>
  </g>
  <g id="axes_1">
   <g id="patch_2">
    <path d="M 43.78125 354.958125 
L 713.38125 354.958125 
L 713.38125 22.318125 
L 43.78125 22.318125 
z
" style="fill: #ffffff"/>
   </g>
   <g id="FillBetweenPolyCollection_1">
    <defs>
     <path id="m8641acbd24" d="M 277.126705 -48.286573 
L 74.217614 -48.286573 
L 82.920814 -48.963992 
L 104.842013 -49.641411 
L 130.376944 -50.318831 
L 151.22148 -50.99625 
L 164.224812 -51.673669 
L 170.587099 -52.351089 
L 172.998542 -53.028508 
L 173.622872 -53.705927 
L 173.615886 -54.383347 
L 173.434843 -55.060766 
L 173.219511 -55.738185 
L 173.008667 -56.415605 
L 172.822005 -57.093024 
L 172.677018 -57.770444 
L 172.58405 -58.447863 
L 172.541162 -59.125282 
L 172.536138 -59.802701 
L 172.552522 -60.480121 
L 172.574577 -61.15754 
L 172.591327 -61.834959 
L 172.600458 -62.512378 
L 172.606125 -63.189797 
L 172.609189 -63.867217 
L 172.607516 -64.544638 
L 172.615915 -65.222057 
L 172.670029 -65.899476 
L 172.778546 -66.576895 
L 172.873371 -67.254315 
L 172.851989 -67.931734 
L 172.700924 -68.609153 
L 172.557244 -69.286572 
L 172.608118 -69.963992 
L 172.915232 -70.641411 
L 173.340376 -71.31883 
L 173.632228 -71.996249 
L 173.584604 -72.673668 
L 173.164241 -73.351088 
L 172.559622 -74.028507 
L 172.108662 -74.705926 
L 172.099729 -75.383345 
L 172.572537 -76.060766 
L 173.302507 -76.738184 
L 173.988608 -77.415605 
L 174.458789 -78.093022 
L 174.717275 -78.770443 
L 174.840894 -79.447861 
L 174.85236 -80.125282 
L 174.671292 -80.802703 
L 174.168829 -81.48012 
L 173.302371 -82.157541 
L 172.251033 -82.834959 
L 171.413867 -83.51238 
L 171.195265 -84.189797 
L 171.71707 -84.867218 
L 172.726588 -85.544636 
L 173.793313 -86.222057 
L 174.593557 -86.899474 
L 175.03534 -87.576895 
L 175.188867 -88.254313 
L 175.163459 -88.931733 
L 175.048454 -89.609151 
L 174.919108 -90.286572 
L 174.845614 -90.96399 
L 174.871303 -91.64141 
L 174.986397 -92.318831 
L 175.138053 -92.996249 
L 175.272739 -93.67367 
L 175.368664 -94.351087 
L 175.433262 -95.028508 
L 175.480608 -95.705926 
L 175.512662 -96.383347 
L 175.506928 -97.060764 
L 175.398593 -97.738185 
L 175.060043 -98.415603 
L 174.317557 -99.093024 
L 173.060743 -99.770441 
L 171.427643 -100.447862 
L 169.901317 -101.12528 
L 169.122004 -101.802701 
L 169.468335 -102.480118 
L 170.768922 -103.157539 
L 172.436432 -103.83496 
L 173.885604 -104.512381 
L 174.840601 -105.189795 
L 175.335857 -105.867216 
L 175.538818 -106.544637 
L 175.600339 -107.222058 
L 175.606945 -107.899472 
L 175.595517 -108.576893 
L 175.577682 -109.254314 
L 175.554064 -109.931735 
L 175.52221 -110.609149 
L 175.484285 -111.28657 
L 175.451905 -111.963991 
L 175.441378 -112.641412 
L 175.461332 -113.318833 
L 175.505043 -113.996247 
L 175.555815 -114.673668 
L 175.599138 -115.351089 
L 175.74518 -115.351089 
L 175.74518 -115.351089 
L 175.788503 -114.673668 
L 175.839275 -113.996247 
L 175.882986 -113.318833 
L 175.90294 -112.641412 
L 175.892414 -111.963991 
L 175.860033 -111.28657 
L 175.822108 -110.609149 
L 175.790254 -109.931735 
L 175.766637 -109.254314 
L 175.748802 -108.576893 
L 175.737373 -107.899472 
L 175.743979 -107.222058 
L 175.8055 -106.544637 
L 176.008461 -105.867216 
L 176.503717 -105.189795 
L 177.458714 -104.512381 
L 178.907886 -103.83496 
L 180.575396 -103.157539 
L 181.875983 -102.480118 
L 182.222314 -101.802701 
L 181.443001 -101.12528 
L 179.916675 -100.447862 
L 178.283576 -99.770441 
L 177.026761 -99.093024 
L 176.284275 -98.415603 
L 175.945726 -97.738185 
L 175.83739 -97.060764 
L 175.831656 -96.383347 
L 175.86371 -95.705926 
L 175.911056 -95.028508 
L 175.975655 -94.351087 
L 176.071579 -93.67367 
L 176.206265 -92.996249 
L 176.357921 -92.318831 
L 176.473015 -91.64141 
L 176.498704 -90.96399 
L 176.42521 -90.286572 
L 176.295864 -89.609151 
L 176.18086 -88.931733 
L 176.155451 -88.254313 
L 176.308978 -87.576895 
L 176.750761 -86.899474 
L 177.551005 -86.222057 
L 178.61773 -85.544636 
L 179.627248 -84.867218 
L 180.149053 -84.189797 
L 179.930451 -83.51238 
L 179.093285 -82.834959 
L 178.041947 -82.157541 
L 177.17549 -81.48012 
L 176.673026 -80.802703 
L 176.491958 -80.125282 
L 176.503425 -79.447861 
L 176.627043 -78.770443 
L 176.885529 -78.093022 
L 177.35571 -77.415605 
L 178.041812 -76.738184 
L 178.771781 -76.060766 
L 179.244589 -75.383345 
L 179.235656 -74.705926 
L 178.784696 -74.028507 
L 178.180077 -73.351088 
L 177.759714 -72.673668 
L 177.71209 -71.996249 
L 178.003942 -71.31883 
L 178.429087 -70.641411 
L 178.7362 -69.963992 
L 178.787074 -69.286572 
L 178.643395 -68.609153 
L 178.492329 -67.931734 
L 178.470947 -67.254315 
L 178.565772 -66.576895 
L 178.674289 -65.899476 
L 178.728403 -65.222057 
L 178.736802 -64.544638 
L 178.735129 -63.867217 
L 178.738194 -63.189797 
L 178.74386 -62.512378 
L 178.752992 -61.834959 
L 178.769741 -61.15754 
L 178.791797 -60.480121 
L 178.80818 -59.802701 
L 178.803156 -59.125282 
L 178.760268 -58.447863 
L 178.667301 -57.770444 
L 178.522313 -57.093024 
L 178.335651 -56.415605 
L 178.124807 -55.738185 
L 177.909475 -55.060766 
L 177.728432 -54.383347 
L 177.721447 -53.705927 
L 178.345776 -53.028508 
L 180.757219 -52.351089 
L 187.119506 -51.673669 
L 200.122839 -50.99625 
L 220.967374 -50.318831 
L 246.502305 -49.641411 
L 268.423504 -48.963992 
L 277.126705 -48.286573 
z
" style="stroke: #000000; stroke-opacity: 0.5"/>
    </defs>
    <g clip-path="url(#pc5b43d7eae)">
     <use xlink:href="#m8641acbd24" x="0" y="392.514375" style="fill: #0000ff; fill-opacity: 0.5; stroke: #000000; stroke-opacity: 0.5"/>
    </g>
   </g>
   <g id="FillBetweenPolyCollection_2">
    <defs>
     <path id="m0864a3f7fd" d="M 672.052388 -48.286573 
L 490.928294 -48.286573 
L 484.939806 -51.176895 
L 481.419546 -54.067218 
L 480.035795 -56.957541 
L 480.214197 -59.847863 
L 481.303449 -62.738186 
L 482.727663 -65.62851 
L 484.08483 -68.518832 
L 485.176889 -71.409154 
L 485.98171 -74.299477 
L 486.591914 -77.189799 
L 487.148017 -80.080121 
L 487.787007 -82.970447 
L 488.616755 -85.860769 
L 489.71535 -88.751091 
L 491.145367 -91.641414 
L 492.968749 -94.531736 
L 495.250183 -97.422058 
L 498.044902 -100.312381 
L 501.376812 -103.202706 
L 505.219219 -106.093025 
L 509.489328 -108.983351 
L 514.059339 -111.87367 
L 518.777256 -114.763995 
L 523.484274 -117.654321 
L 528.018304 -120.54464 
L 532.201893 -123.434965 
L 535.823859 -126.325285 
L 538.631734 -129.21561 
L 540.351493 -132.105929 
L 540.742951 -134.996255 
L 539.683843 -137.886574 
L 537.259227 -140.776899 
L 533.821284 -143.667225 
L 529.985121 -146.557544 
L 526.542422 -149.447869 
L 524.303663 -152.338189 
L 523.909918 -155.228514 
L 525.673673 -158.11884 
L 529.502729 -161.009152 
L 534.933504 -163.899478 
L 541.260054 -166.789803 
L 547.712667 -169.680129 
L 553.626671 -172.570454 
L 558.553853 -175.460767 
L 562.296322 -178.351093 
L 564.871842 -181.241418 
L 566.43998 -184.131744 
L 567.222295 -187.022069 
L 567.442043 -189.912382 
L 567.294148 -192.802707 
L 566.942077 -195.693033 
L 566.529114 -198.583358 
L 566.189434 -201.473671 
L 566.048555 -204.363997 
L 566.210848 -207.254322 
L 566.73977 -210.144648 
L 567.641014 -213.034973 
L 568.85765 -215.925286 
L 570.28052 -218.815611 
L 571.769683 -221.705937 
L 573.177951 -224.596262 
L 574.367327 -227.486575 
L 575.214022 -230.376901 
L 575.604493 -233.267226 
L 575.430827 -236.157552 
L 574.59523 -239.047877 
L 573.03011 -241.93819 
L 570.732576 -244.828515 
L 567.803291 -247.718841 
L 564.472693 -250.609166 
L 561.097176 -253.499479 
L 558.115073 -256.389805 
L 555.96677 -259.28013 
L 554.99829 -262.170456 
L 555.378106 -265.060781 
L 557.055163 -267.951107 
L 559.772931 -270.841432 
L 563.134519 -273.731732 
L 566.696608 -276.622058 
L 570.061581 -279.512383 
L 572.942726 -282.402709 
L 575.189579 -285.293034 
L 576.776234 -288.18336 
L 577.766096 -291.073685 
L 578.26997 -293.964011 
L 578.41113 -296.854336 
L 578.304157 -299.744636 
L 578.047375 -302.634962 
L 577.724084 -305.525287 
L 577.406298 -308.415613 
L 577.156127 -311.305938 
L 577.023038 -314.196264 
L 577.038446 -317.086589 
L 577.21095 -319.976915 
L 577.525493 -322.86724 
L 577.947811 -325.757566 
L 578.433098 -328.647866 
L 578.936023 -331.538191 
L 579.418865 -334.428517 
L 583.561817 -334.428517 
L 583.561817 -334.428517 
L 584.044659 -331.538191 
L 584.547583 -328.647866 
L 585.032871 -325.757566 
L 585.455189 -322.86724 
L 585.769732 -319.976915 
L 585.942236 -317.086589 
L 585.957643 -314.196264 
L 585.824555 -311.305938 
L 585.574384 -308.415613 
L 585.256598 -305.525287 
L 584.933307 -302.634962 
L 584.676524 -299.744636 
L 584.569551 -296.854336 
L 584.710712 -293.964011 
L 585.214586 -291.073685 
L 586.204448 -288.18336 
L 587.791103 -285.293034 
L 590.037956 -282.402709 
L 592.919101 -279.512383 
L 596.284073 -276.622058 
L 599.846163 -273.731732 
L 603.207751 -270.841432 
L 605.925519 -267.951107 
L 607.602576 -265.060781 
L 607.982392 -262.170456 
L 607.013912 -259.28013 
L 604.865609 -256.389805 
L 601.883506 -253.499479 
L 598.507989 -250.609166 
L 595.177391 -247.718841 
L 592.248106 -244.828515 
L 589.950571 -241.93819 
L 588.385452 -239.047877 
L 587.549855 -236.157552 
L 587.376189 -233.267226 
L 587.76666 -230.376901 
L 588.613354 -227.486575 
L 589.802731 -224.596262 
L 591.210998 -221.705937 
L 592.700162 -218.815611 
L 594.123032 -215.925286 
L 595.339668 -213.034973 
L 596.240912 -210.144648 
L 596.769834 -207.254322 
L 596.932127 -204.363997 
L 596.791248 -201.473671 
L 596.451567 -198.583358 
L 596.038605 -195.693033 
L 595.686534 -192.802707 
L 595.538639 -189.912382 
L 595.758386 -187.022069 
L 596.540702 -184.131744 
L 598.10884 -181.241418 
L 600.684359 -178.351093 
L 604.426829 -175.460767 
L 609.35401 -172.570454 
L 615.268015 -169.680129 
L 621.720628 -166.789803 
L 628.047178 -163.899478 
L 633.477953 -161.009152 
L 637.307009 -158.11884 
L 639.070764 -155.228514 
L 638.677019 -152.338189 
L 636.43826 -149.447869 
L 632.995561 -146.557544 
L 629.159398 -143.667225 
L 625.721455 -140.776899 
L 623.296839 -137.886574 
L 622.237731 -134.996255 
L 622.629189 -132.105929 
L 624.348948 -129.21561 
L 627.156823 -126.325285 
L 630.778789 -123.434965 
L 634.962378 -120.54464 
L 639.496408 -117.654321 
L 644.203426 -114.763995 
L 648.921343 -111.87367 
L 653.491354 -108.983351 
L 657.761463 -106.093025 
L 661.60387 -103.202706 
L 664.93578 -100.312381 
L 667.730499 -97.422058 
L 670.011933 -94.531736 
L 671.835315 -91.641414 
L 673.265332 -88.751091 
L 674.363927 -85.860769 
L 675.193674 -82.970447 
L 675.832665 -80.080121 
L 676.388768 -77.189799 
L 676.998972 -74.299477 
L 677.803793 -71.409154 
L 678.895852 -68.518832 
L 680.253018 -65.62851 
L 681.677232 -62.738186 
L 682.766485 -59.847863 
L 682.944886 -56.957541 
L 681.561136 -54.067218 
L 678.040876 -51.176895 
L 672.052388 -48.286573 
z
" style="stroke: #000000; stroke-opacity: 0.5"/>
    </defs>
    <g clip-path="url(#pc5b43d7eae)">
     <use xlink:href="#m0864a3f7fd" x="0" y="392.514375" style="fill: #008000; fill-opacity: 0.5; stroke: #000000; stroke-opacity: 0.5"/>
    </g>
   </g>
   <g id="matplotlib.axis_1">
    <g id="xtick_1">
     <g id="line2d_1">
      <defs>
       <path id="m41d6cda621" d="M 0 0 
L 0 3.5 
" style="stroke: #000000; stroke-width: 0.8"/>
      </defs>
      <g>
       <use xlink:href="#m41d6cda621" x="175.672159" y="354.958125" style="stroke: #000000; stroke-width: 0.8"/>
      </g>
     </g>
     <g id="text_1">
      <!-- not KCs -->
      <g transform="translate(156.794815 369.556562) scale(0.1 -0.1)">
       <defs>
        <path id="DejaVuSans-6e" d="M 3513 2113 
L 3513 0 
L 2938 0 
L 2938 2094 
Q 2938 2591 2744 2837 
Q 2550 3084 2163 3084 
Q 1697 3084 1428 2787 
Q 1159 2491 1159 1978 
L 1159 0 
L 581 0 
L 581 3500 
L 1159 3500 
L 1159 2956 
Q 1366 3272 1645 3428 
Q 1925 3584 2291 3584 
Q 2894 3584 3203 3211 
Q 3513 2838 3513 2113 
z
" transform="scale(0.015625)"/>
        <path id="DejaVuSans-6f" d="M 1959 3097 
Q 1497 3097 1228 2736 
Q 959 2375 959 1747 
Q 959 1119 1226 758 
Q 1494 397 1959 397 
Q 2419 397 2687 759 
Q 2956 1122 2956 1747 
Q 2956 2369 2687 2733 
Q 2419 3097 1959 3097 
z
M 1959 3584 
Q 2709 3584 3137 3096 
Q 3566 2609 3566 1747 
Q 3566 888 3137 398 
Q 2709 -91 1959 -91 
Q 1206 -91 779 398 
Q 353 888 353 1747 
Q 353 2609 779 3096 
Q 1206 3584 1959 3584 
z
" transform="scale(0.015625)"/>
        <path id="DejaVuSans-74" d="M 1172 4494 
L 1172 3500 
L 2356 3500 
L 2356 3053 
L 1172 3053 
L 1172 1153 
Q 1172 725 1289 603 
Q 1406 481 1766 481 
L 2356 481 
L 2356 0 
L 1766 0 
Q 1100 0 847 248 
Q 594 497 594 1153 
L 594 3053 
L 172 3053 
L 172 3500 
L 594 3500 
L 594 4494 
L 1172 4494 
z
" transform="scale(0.015625)"/>
        <path id="DejaVuSans-20" transform="scale(0.015625)"/>
        <path id="DejaVuSans-4b" d="M 628 4666 
L 1259 4666 
L 1259 2694 
L 3353 4666 
L 4166 4666 
L 1850 2491 
L 4331 0 
L 3500 0 
L 1259 2247 
L 1259 0 
L 628 0 
L 628 4666 
z
" transform="scale(0.015625)"/>
        <path id="DejaVuSans-43" d="M 4122 4306 
L 4122 3641 
Q 3803 3938 3442 4084 
Q 3081 4231 2675 4231 
Q 1875 4231 1450 3742 
Q 1025 3253 1025 2328 
Q 1025 1406 1450 917 
Q 1875 428 2675 428 
Q 3081 428 3442 575 
Q 3803 722 4122 1019 
L 4122 359 
Q 3791 134 3420 21 
Q 3050 -91 2638 -91 
Q 1578 -91 968 557 
Q 359 1206 359 2328 
Q 359 3453 968 4101 
Q 1578 4750 2638 4750 
Q 3056 4750 3426 4639 
Q 3797 4528 4122 4306 
z
" transform="scale(0.015625)"/>
        <path id="DejaVuSans-73" d="M 2834 3397 
L 2834 2853 
Q 2591 2978 2328 3040 
Q 2066 3103 1784 3103 
Q 1356 3103 1142 2972 
Q 928 2841 928 2578 
Q 928 2378 1081 2264 
Q 1234 2150 1697 2047 
L 1894 2003 
Q 2506 1872 2764 1633 
Q 3022 1394 3022 966 
Q 3022 478 2636 193 
Q 2250 -91 1575 -91 
Q 1294 -91 989 -36 
Q 684 19 347 128 
L 347 722 
Q 666 556 975 473 
Q 1284 391 1588 391 
Q 1994 391 2212 530 
Q 2431 669 2431 922 
Q 2431 1156 2273 1281 
Q 2116 1406 1581 1522 
L 1381 1569 
Q 847 1681 609 1914 
Q 372 2147 372 2553 
Q 372 3047 722 3315 
Q 1072 3584 1716 3584 
Q 2034 3584 2315 3537 
Q 2597 3491 2834 3397 
z
" transform="scale(0.015625)"/>
       </defs>
       <use xlink:href="#DejaVuSans-6e"/>
       <use xlink:href="#DejaVuSans-6f" transform="translate(63.378906 0)"/>
       <use xlink:href="#DejaVuSans-74" transform="translate(124.560547 0)"/>
       <use xlink:href="#DejaVuSans-20" transform="translate(163.769531 0)"/>
       <use xlink:href="#DejaVuSans-4b" transform="translate(195.556641 0)"/>
       <use xlink:href="#DejaVuSans-43" transform="translate(255.632812 0)"/>
       <use xlink:href="#DejaVuSans-73" transform="translate(325.457031 0)"/>
      </g>
     </g>
    </g>
    <g id="xtick_2">
     <g id="line2d_2">
      <g>
       <use xlink:href="#m41d6cda621" x="581.490341" y="354.958125" style="stroke: #000000; stroke-width: 0.8"/>
      </g>
     </g>
     <g id="text_2">
      <!-- KC -->
      <g transform="translate(574.995028 369.556562) scale(0.1 -0.1)">
       <use xlink:href="#DejaVuSans-4b"/>
       <use xlink:href="#DejaVuSans-43" transform="translate(60.076172 0)"/>
      </g>
     </g>
    </g>
    <g id="text_3">
     <!-- Cell Type -->
     <g transform="translate(356.163281 383.234687) scale(0.1 -0.1)">
      <defs>
       <path id="DejaVuSans-65" d="M 3597 1894 
L 3597 1613 
L 953 1613 
Q 991 1019 1311 708 
Q 1631 397 2203 397 
Q 2534 397 2845 478 
Q 3156 559 3463 722 
L 3463 178 
Q 3153 47 2828 -22 
Q 2503 -91 2169 -91 
Q 1331 -91 842 396 
Q 353 884 353 1716 
Q 353 2575 817 3079 
Q 1281 3584 2069 3584 
Q 2775 3584 3186 3129 
Q 3597 2675 3597 1894 
z
M 3022 2063 
Q 3016 2534 2758 2815 
Q 2500 3097 2075 3097 
Q 1594 3097 1305 2825 
Q 1016 2553 972 2059 
L 3022 2063 
z
" transform="scale(0.015625)"/>
       <path id="DejaVuSans-6c" d="M 603 4863 
L 1178 4863 
L 1178 0 
L 603 0 
L 603 4863 
z
" transform="scale(0.015625)"/>
       <path id="DejaVuSans-54" d="M -19 4666 
L 3928 4666 
L 3928 4134 
L 2272 4134 
L 2272 0 
L 1638 0 
L 1638 4134 
L -19 4134 
L -19 4666 
z
" transform="scale(0.015625)"/>
       <path id="DejaVuSans-79" d="M 2059 -325 
Q 1816 -950 1584 -1140 
Q 1353 -1331 966 -1331 
L 506 -1331 
L 506 -850 
L 844 -850 
Q 1081 -850 1212 -737 
Q 1344 -625 1503 -206 
L 1606 56 
L 191 3500 
L 800 3500 
L 1894 763 
L 2988 3500 
L 3597 3500 
L 2059 -325 
z
" transform="scale(0.015625)"/>
       <path id="DejaVuSans-70" d="M 1159 525 
L 1159 -1331 
L 581 -1331 
L 581 3500 
L 1159 3500 
L 1159 2969 
Q 1341 3281 1617 3432 
Q 1894 3584 2278 3584 
Q 2916 3584 3314 3078 
Q 3713 2572 3713 1747 
Q 3713 922 3314 415 
Q 2916 -91 2278 -91 
Q 1894 -91 1617 61 
Q 1341 213 1159 525 
z
M 3116 1747 
Q 3116 2381 2855 2742 
Q 2594 3103 2138 3103 
Q 1681 3103 1420 2742 
Q 1159 2381 1159 1747 
Q 1159 1113 1420 752 
Q 1681 391 2138 391 
Q 2594 391 2855 752 
Q 3116 1113 3116 1747 
z
" transform="scale(0.015625)"/>
      </defs>
      <use xlink:href="#DejaVuSans-43"/>
      <use xlink:href="#DejaVuSans-65" transform="translate(69.824219 0)"/>
      <use xlink:href="#DejaVuSans-6c" transform="translate(131.347656 0)"/>
      <use xlink:href="#DejaVuSans-6c" transform="translate(159.130859 0)"/>
      <use xlink:href="#DejaVuSans-20" transform="translate(186.914062 0)"/>
      <use xlink:href="#DejaVuSans-54" transform="translate(218.701172 0)"/>
      <use xlink:href="#DejaVuSans-79" transform="translate(264.160156 0)"/>
      <use xlink:href="#DejaVuSans-70" transform="translate(323.339844 0)"/>
      <use xlink:href="#DejaVuSans-65" transform="translate(386.816406 0)"/>
     </g>
    </g>
   </g>
   <g id="matplotlib.axis_2">
    <g id="ytick_1">
     <g id="line2d_3">
      <defs>
       <path id="m5113bec9dd" d="M 0 0 
L -3.5 0 
" style="stroke: #000000; stroke-width: 0.8"/>
      </defs>
      <g>
       <use xlink:href="#m5113bec9dd" x="43.78125" y="344.227802" style="stroke: #000000; stroke-width: 0.8"/>
      </g>
     </g>
     <g id="text_4">
      <!-- 0.0 -->
      <g transform="translate(20.878125 348.027021) scale(0.1 -0.1)">
       <defs>
        <path id="DejaVuSans-30" d="M 2034 4250 
Q 1547 4250 1301 3770 
Q 1056 3291 1056 2328 
Q 1056 1369 1301 889 
Q 1547 409 2034 409 
Q 2525 409 2770 889 
Q 3016 1369 3016 2328 
Q 3016 3291 2770 3770 
Q 2525 4250 2034 4250 
z
M 2034 4750 
Q 2819 4750 3233 4129 
Q 3647 3509 3647 2328 
Q 3647 1150 3233 529 
Q 2819 -91 2034 -91 
Q 1250 -91 836 529 
Q 422 1150 422 2328 
Q 422 3509 836 4129 
Q 1250 4750 2034 4750 
z
" transform="scale(0.015625)"/>
        <path id="DejaVuSans-2e" d="M 684 794 
L 1344 794 
L 1344 0 
L 684 0 
L 684 794 
z
" transform="scale(0.015625)"/>
       </defs>
       <use xlink:href="#DejaVuSans-30"/>
       <use xlink:href="#DejaVuSans-2e" transform="translate(63.623047 0)"/>
       <use xlink:href="#DejaVuSans-30" transform="translate(95.410156 0)"/>
      </g>
     </g>
    </g>
    <g id="ytick_2">
     <g id="line2d_4">
      <g>
       <use xlink:href="#m5113bec9dd" x="43.78125" y="290.57619" style="stroke: #000000; stroke-width: 0.8"/>
      </g>
     </g>
     <g id="text_5">
      <!-- 0.5 -->
      <g transform="translate(20.878125 294.375408) scale(0.1 -0.1)">
       <defs>
        <path id="DejaVuSans-35" d="M 691 4666 
L 3169 4666 
L 3169 4134 
L 1269 4134 
L 1269 2991 
Q 1406 3038 1543 3061 
Q 1681 3084 1819 3084 
Q 2600 3084 3056 2656 
Q 3513 2228 3513 1497 
Q 3513 744 3044 326 
Q 2575 -91 1722 -91 
Q 1428 -91 1123 -41 
Q 819 9 494 109 
L 494 744 
Q 775 591 1075 516 
Q 1375 441 1709 441 
Q 2250 441 2565 725 
Q 2881 1009 2881 1497 
Q 2881 1984 2565 2268 
Q 2250 2553 1709 2553 
Q 1456 2553 1204 2497 
Q 953 2441 691 2322 
L 691 4666 
z
" transform="scale(0.015625)"/>
       </defs>
       <use xlink:href="#DejaVuSans-30"/>
       <use xlink:href="#DejaVuSans-2e" transform="translate(63.623047 0)"/>
       <use xlink:href="#DejaVuSans-35" transform="translate(95.410156 0)"/>
      </g>
     </g>
    </g>
    <g id="ytick_3">
     <g id="line2d_5">
      <g>
       <use xlink:href="#m5113bec9dd" x="43.78125" y="236.924577" style="stroke: #000000; stroke-width: 0.8"/>
      </g>
     </g>
     <g id="text_6">
      <!-- 1.0 -->
      <g transform="translate(20.878125 240.723795) scale(0.1 -0.1)">
       <defs>
        <path id="DejaVuSans-31" d="M 794 531 
L 1825 531 
L 1825 4091 
L 703 3866 
L 703 4441 
L 1819 4666 
L 2450 4666 
L 2450 531 
L 3481 531 
L 3481 0 
L 794 0 
L 794 531 
z
" transform="scale(0.015625)"/>
       </defs>
       <use xlink:href="#DejaVuSans-31"/>
       <use xlink:href="#DejaVuSans-2e" transform="translate(63.623047 0)"/>
       <use xlink:href="#DejaVuSans-30" transform="translate(95.410156 0)"/>
      </g>
     </g>
    </g>
    <g id="ytick_4">
     <g id="line2d_6">
      <g>
       <use xlink:href="#m5113bec9dd" x="43.78125" y="183.272964" style="stroke: #000000; stroke-width: 0.8"/>
      </g>
     </g>
     <g id="text_7">
      <!-- 1.5 -->
      <g transform="translate(20.878125 187.072182) scale(0.1 -0.1)">
       <use xlink:href="#DejaVuSans-31"/>
       <use xlink:href="#DejaVuSans-2e" transform="translate(63.623047 0)"/>
       <use xlink:href="#DejaVuSans-35" transform="translate(95.410156 0)"/>
      </g>
     </g>
    </g>
    <g id="ytick_5">
     <g id="line2d_7">
      <g>
       <use xlink:href="#m5113bec9dd" x="43.78125" y="129.621351" style="stroke: #000000; stroke-width: 0.8"/>
      </g>
     </g>
     <g id="text_8">
      <!-- 2.0 -->
      <g transform="translate(20.878125 133.42057) scale(0.1 -0.1)">
       <defs>
        <path id="DejaVuSans-32" d="M 1228 531 
L 3431 531 
L 3431 0 
L 469 0 
L 469 531 
Q 828 903 1448 1529 
Q 2069 2156 2228 2338 
Q 2531 2678 2651 2914 
Q 2772 3150 2772 3378 
Q 2772 3750 2511 3984 
Q 2250 4219 1831 4219 
Q 1534 4219 1204 4116 
Q 875 4013 500 3803 
L 500 4441 
Q 881 4594 1212 4672 
Q 1544 4750 1819 4750 
Q 2544 4750 2975 4387 
Q 3406 4025 3406 3419 
Q 3406 3131 3298 2873 
Q 3191 2616 2906 2266 
Q 2828 2175 2409 1742 
Q 1991 1309 1228 531 
z
" transform="scale(0.015625)"/>
       </defs>
       <use xlink:href="#DejaVuSans-32"/>
       <use xlink:href="#DejaVuSans-2e" transform="translate(63.623047 0)"/>
       <use xlink:href="#DejaVuSans-30" transform="translate(95.410156 0)"/>
      </g>
     </g>
    </g>
    <g id="ytick_6">
     <g id="line2d_8">
      <g>
       <use xlink:href="#m5113bec9dd" x="43.78125" y="75.969738" style="stroke: #000000; stroke-width: 0.8"/>
      </g>
     </g>
     <g id="text_9">
      <!-- 2.5 -->
      <g transform="translate(20.878125 79.768957) scale(0.1 -0.1)">
       <use xlink:href="#DejaVuSans-32"/>
       <use xlink:href="#DejaVuSans-2e" transform="translate(63.623047 0)"/>
       <use xlink:href="#DejaVuSans-35" transform="translate(95.410156 0)"/>
      </g>
     </g>
    </g>
    <g id="ytick_7">
     <g id="line2d_9">
      <g>
       <use xlink:href="#m5113bec9dd" x="43.78125" y="22.318125" style="stroke: #000000; stroke-width: 0.8"/>
      </g>
     </g>
     <g id="text_10">
      <!-- 3.0 -->
      <g transform="translate(20.878125 26.117344) scale(0.1 -0.1)">
       <defs>
        <path id="DejaVuSans-33" d="M 2597 2516 
Q 3050 2419 3304 2112 
Q 3559 1806 3559 1356 
Q 3559 666 3084 287 
Q 2609 -91 1734 -91 
Q 1441 -91 1130 -33 
Q 819 25 488 141 
L 488 750 
Q 750 597 1062 519 
Q 1375 441 1716 441 
Q 2309 441 2620 675 
Q 2931 909 2931 1356 
Q 2931 1769 2642 2001 
Q 2353 2234 1838 2234 
L 1294 2234 
L 1294 2753 
L 1863 2753 
Q 2328 2753 2575 2939 
Q 2822 3125 2822 3475 
Q 2822 3834 2567 4026 
Q 2313 4219 1838 4219 
Q 1578 4219 1281 4162 
Q 984 4106 628 3988 
L 628 4550 
Q 988 4650 1302 4700 
Q 1616 4750 1894 4750 
Q 2613 4750 3031 4423 
Q 3450 4097 3450 3541 
Q 3450 3153 3228 2886 
Q 3006 2619 2597 2516 
z
" transform="scale(0.015625)"/>
       </defs>
       <use xlink:href="#DejaVuSans-33"/>
       <use xlink:href="#DejaVuSans-2e" transform="translate(63.623047 0)"/>
       <use xlink:href="#DejaVuSans-30" transform="translate(95.410156 0)"/>
      </g>
     </g>
    </g>
    <g id="text_11">
     <!-- Rut Expression -->
     <g transform="translate(14.798438 225.744375) rotate(-90) scale(0.1 -0.1)">
      <defs>
       <path id="DejaVuSans-52" d="M 2841 2188 
Q 3044 2119 3236 1894 
Q 3428 1669 3622 1275 
L 4263 0 
L 3584 0 
L 2988 1197 
Q 2756 1666 2539 1819 
Q 2322 1972 1947 1972 
L 1259 1972 
L 1259 0 
L 628 0 
L 628 4666 
L 2053 4666 
Q 2853 4666 3247 4331 
Q 3641 3997 3641 3322 
Q 3641 2881 3436 2590 
Q 3231 2300 2841 2188 
z
M 1259 4147 
L 1259 2491 
L 2053 2491 
Q 2509 2491 2742 2702 
Q 2975 2913 2975 3322 
Q 2975 3731 2742 3939 
Q 2509 4147 2053 4147 
L 1259 4147 
z
" transform="scale(0.015625)"/>
       <path id="DejaVuSans-75" d="M 544 1381 
L 544 3500 
L 1119 3500 
L 1119 1403 
Q 1119 906 1312 657 
Q 1506 409 1894 409 
Q 2359 409 2629 706 
Q 2900 1003 2900 1516 
L 2900 3500 
L 3475 3500 
L 3475 0 
L 2900 0 
L 2900 538 
Q 2691 219 2414 64 
Q 2138 -91 1772 -91 
Q 1169 -91 856 284 
Q 544 659 544 1381 
z
M 1991 3584 
L 1991 3584 
z
" transform="scale(0.015625)"/>
       <path id="DejaVuSans-45" d="M 628 4666 
L 3578 4666 
L 3578 4134 
L 1259 4134 
L 1259 2753 
L 3481 2753 
L 3481 2222 
L 1259 2222 
L 1259 531 
L 3634 531 
L 3634 0 
L 628 0 
L 628 4666 
z
" transform="scale(0.015625)"/>
       <path id="DejaVuSans-78" d="M 3513 3500 
L 2247 1797 
L 3578 0 
L 2900 0 
L 1881 1375 
L 863 0 
L 184 0 
L 1544 1831 
L 300 3500 
L 978 3500 
L 1906 2253 
L 2834 3500 
L 3513 3500 
z
" transform="scale(0.015625)"/>
       <path id="DejaVuSans-72" d="M 2631 2963 
Q 2534 3019 2420 3045 
Q 2306 3072 2169 3072 
Q 1681 3072 1420 2755 
Q 1159 2438 1159 1844 
L 1159 0 
L 581 0 
L 581 3500 
L 1159 3500 
L 1159 2956 
Q 1341 3275 1631 3429 
Q 1922 3584 2338 3584 
Q 2397 3584 2469 3576 
Q 2541 3569 2628 3553 
L 2631 2963 
z
" transform="scale(0.015625)"/>
       <path id="DejaVuSans-69" d="M 603 3500 
L 1178 3500 
L 1178 0 
L 603 0 
L 603 3500 
z
M 603 4863 
L 1178 4863 
L 1178 4134 
L 603 4134 
L 603 4863 
z
" transform="scale(0.015625)"/>
      </defs>
      <use xlink:href="#DejaVuSans-52"/>
      <use xlink:href="#DejaVuSans-75" transform="translate(64.982422 0)"/>
      <use xlink:href="#DejaVuSans-74" transform="translate(128.361328 0)"/>
      <use xlink:href="#DejaVuSans-20" transform="translate(167.570312 0)"/>
      <use xlink:href="#DejaVuSans-45" transform="translate(199.357422 0)"/>
      <use xlink:href="#DejaVuSans-78" transform="translate(262.541016 0)"/>
      <use xlink:href="#DejaVuSans-70" transform="translate(321.720703 0)"/>
      <use xlink:href="#DejaVuSans-72" transform="translate(385.197266 0)"/>
      <use xlink:href="#DejaVuSans-65" transform="translate(424.060547 0)"/>
      <use xlink:href="#DejaVuSans-73" transform="translate(485.583984 0)"/>
      <use xlink:href="#DejaVuSans-73" transform="translate(537.683594 0)"/>
      <use xlink:href="#DejaVuSans-69" transform="translate(589.783203 0)"/>
      <use xlink:href="#DejaVuSans-6f" transform="translate(617.566406 0)"/>
      <use xlink:href="#DejaVuSans-6e" transform="translate(678.748047 0)"/>
     </g>
    </g>
   </g>
   <g id="LineCollection_1">
    <path d="M 124.944886 277.163286 
L 226.399432 277.163286 
" clip-path="url(#pc5b43d7eae)" style="fill: none; stroke: #000000; stroke-width: 1.5"/>
    <path d="M 530.763068 58.085858 
L 632.217614 58.085858 
" clip-path="url(#pc5b43d7eae)" style="fill: none; stroke: #000000; stroke-width: 1.5"/>
   </g>
   <g id="LineCollection_2">
    <path d="M 124.944886 344.227802 
L 226.399432 344.227802 
" clip-path="url(#pc5b43d7eae)" style="fill: none; stroke: #000000; stroke-width: 1.5"/>
    <path d="M 530.763068 344.227802 
L 632.217614 344.227802 
" clip-path="url(#pc5b43d7eae)" style="fill: none; stroke: #000000; stroke-width: 1.5"/>
   </g>
   <g id="LineCollection_3">
    <path d="M 175.672159 344.227802 
L 175.672159 277.163286 
" clip-path="url(#pc5b43d7eae)" style="fill: none; stroke: #000000; stroke-width: 1.5"/>
    <path d="M 581.490341 344.227802 
L 581.490341 58.085858 
" clip-path="url(#pc5b43d7eae)" style="fill: none; stroke: #000000; stroke-width: 1.5"/>
   </g>
   <g id="LineCollection_4">
    <path d="M 124.944886 344.227802 
L 226.399432 344.227802 
" clip-path="url(#pc5b43d7eae)" style="fill: none; stroke: #000000; stroke-width: 1.5"/>
    <path d="M 530.763068 290.57619 
L 632.217614 290.57619 
" clip-path="url(#pc5b43d7eae)" style="fill: none; stroke: #000000; stroke-width: 1.5"/>
   </g>
   <g id="patch_3">
    <path d="M 43.78125 354.958125 
L 43.78125 22.318125 
" style="fill: none; stroke: #000000; stroke-width: 0.8; stroke-linejoin: miter; stroke-linecap: square"/>
   </g>
   <g id="patch_4">
    <path d="M 713.38125 354.958125 
L 713.38125 22.318125 
" style="fill: none; stroke: #000000; stroke-width: 0.8; stroke-linejoin: miter; stroke-linecap: square"/>
   </g>
   <g id="patch_5">
    <path d="M 43.78125 354.958125 
L 713.38125 354.958125 
" style="fill: none; stroke: #000000; stroke-width: 0.8; stroke-linejoin: miter; stroke-linecap: square"/>
   </g>
   <g id="patch_6">
    <path d="M 43.78125 22.318125 
L 713.38125 22.318125 
" style="fill: none; stroke: #000000; stroke-width: 0.8; stroke-linejoin: miter; stroke-linecap: square"/>
   </g>
   <g id="text_12">
    <!-- Violin Plot of Rut Expression in KCs and not KCs -->
    <g transform="translate(236.839688 16.318125) scale(0.12 -0.12)">
     <defs>
      <path id="DejaVuSans-56" d="M 1831 0 
L 50 4666 
L 709 4666 
L 2188 738 
L 3669 4666 
L 4325 4666 
L 2547 0 
L 1831 0 
z
" transform="scale(0.015625)"/>
      <path id="DejaVuSans-50" d="M 1259 4147 
L 1259 2394 
L 2053 2394 
Q 2494 2394 2734 2622 
Q 2975 2850 2975 3272 
Q 2975 3691 2734 3919 
Q 2494 4147 2053 4147 
L 1259 4147 
z
M 628 4666 
L 2053 4666 
Q 2838 4666 3239 4311 
Q 3641 3956 3641 3272 
Q 3641 2581 3239 2228 
Q 2838 1875 2053 1875 
L 1259 1875 
L 1259 0 
L 628 0 
L 628 4666 
z
" transform="scale(0.015625)"/>
      <path id="DejaVuSans-66" d="M 2375 4863 
L 2375 4384 
L 1825 4384 
Q 1516 4384 1395 4259 
Q 1275 4134 1275 3809 
L 1275 3500 
L 2222 3500 
L 2222 3053 
L 1275 3053 
L 1275 0 
L 697 0 
L 697 3053 
L 147 3053 
L 147 3500 
L 697 3500 
L 697 3744 
Q 697 4328 969 4595 
Q 1241 4863 1831 4863 
L 2375 4863 
z
" transform="scale(0.015625)"/>
      <path id="DejaVuSans-61" d="M 2194 1759 
Q 1497 1759 1228 1600 
Q 959 1441 959 1056 
Q 959 750 1161 570 
Q 1363 391 1709 391 
Q 2188 391 2477 730 
Q 2766 1069 2766 1631 
L 2766 1759 
L 2194 1759 
z
M 3341 1997 
L 3341 0 
L 2766 0 
L 2766 531 
Q 2569 213 2275 61 
Q 1981 -91 1556 -91 
Q 1019 -91 701 211 
Q 384 513 384 1019 
Q 384 1609 779 1909 
Q 1175 2209 1959 2209 
L 2766 2209 
L 2766 2266 
Q 2766 2663 2505 2880 
Q 2244 3097 1772 3097 
Q 1472 3097 1187 3025 
Q 903 2953 641 2809 
L 641 3341 
Q 956 3463 1253 3523 
Q 1550 3584 1831 3584 
Q 2591 3584 2966 3190 
Q 3341 2797 3341 1997 
z
" transform="scale(0.015625)"/>
      <path id="DejaVuSans-64" d="M 2906 2969 
L 2906 4863 
L 3481 4863 
L 3481 0 
L 2906 0 
L 2906 525 
Q 2725 213 2448 61 
Q 2172 -91 1784 -91 
Q 1150 -91 751 415 
Q 353 922 353 1747 
Q 353 2572 751 3078 
Q 1150 3584 1784 3584 
Q 2172 3584 2448 3432 
Q 2725 3281 2906 2969 
z
M 947 1747 
Q 947 1113 1208 752 
Q 1469 391 1925 391 
Q 2381 391 2643 752 
Q 2906 1113 2906 1747 
Q 2906 2381 2643 2742 
Q 2381 3103 1925 3103 
Q 1469 3103 1208 2742 
Q 947 2381 947 1747 
z
" transform="scale(0.015625)"/>
     </defs>
     <use xlink:href="#DejaVuSans-56"/>
     <use xlink:href="#DejaVuSans-69" transform="translate(66.158203 0)"/>
     <use xlink:href="#DejaVuSans-6f" transform="translate(93.941406 0)"/>
     <use xlink:href="#DejaVuSans-6c" transform="translate(155.123047 0)"/>
     <use xlink:href="#DejaVuSans-69" transform="translate(182.90625 0)"/>
     <use xlink:href="#DejaVuSans-6e" transform="translate(210.689453 0)"/>
     <use xlink:href="#DejaVuSans-20" transform="translate(274.068359 0)"/>
     <use xlink:href="#DejaVuSans-50" transform="translate(305.855469 0)"/>
     <use xlink:href="#DejaVuSans-6c" transform="translate(366.158203 0)"/>
     <use xlink:href="#DejaVuSans-6f" transform="translate(393.941406 0)"/>
     <use xlink:href="#DejaVuSans-74" transform="translate(455.123047 0)"/>
     <use xlink:href="#DejaVuSans-20" transform="translate(494.332031 0)"/>
     <use xlink:href="#DejaVuSans-6f" transform="translate(526.119141 0)"/>
     <use xlink:href="#DejaVuSans-66" transform="translate(587.300781 0)"/>
     <use xlink:href="#DejaVuSans-20" transform="translate(622.505859 0)"/>
     <use xlink:href="#DejaVuSans-52" transform="translate(654.292969 0)"/>
     <use xlink:href="#DejaVuSans-75" transform="translate(719.275391 0)"/>
     <use xlink:href="#DejaVuSans-74" transform="translate(782.654297 0)"/>
     <use xlink:href="#DejaVuSans-20" transform="translate(821.863281 0)"/>
     <use xlink:href="#DejaVuSans-45" transform="translate(853.650391 0)"/>
     <use xlink:href="#DejaVuSans-78" transform="translate(916.833984 0)"/>
     <use xlink:href="#DejaVuSans-70" transform="translate(976.013672 0)"/>
     <use xlink:href="#DejaVuSans-72" transform="translate(1039.490234 0)"/>
     <use xlink:href="#DejaVuSans-65" transform="translate(1078.353516 0)"/>
     <use xlink:href="#DejaVuSans-73" transform="translate(1139.876953 0)"/>
     <use xlink:href="#DejaVuSans-73" transform="translate(1191.976562 0)"/>
     <use xlink:href="#DejaVuSans-69" transform="translate(1244.076172 0)"/>
     <use xlink:href="#DejaVuSans-6f" transform="translate(1271.859375 0)"/>
     <use xlink:href="#DejaVuSans-6e" transform="translate(1333.041016 0)"/>
     <use xlink:href="#DejaVuSans-20" transform="translate(1396.419922 0)"/>
     <use xlink:href="#DejaVuSans-69" transform="translate(1428.207031 0)"/>
     <use xlink:href="#DejaVuSans-6e" transform="translate(1455.990234 0)"/>
     <use xlink:href="#DejaVuSans-20" transform="translate(1519.369141 0)"/>
     <use xlink:href="#DejaVuSans-4b" transform="translate(1551.15625 0)"/>
     <use xlink:href="#DejaVuSans-43" transform="translate(1611.232422 0)"/>
     <use xlink:href="#DejaVuSans-73" transform="translate(1681.056641 0)"/>
     <use xlink:href="#DejaVuSans-20" transform="translate(1733.15625 0)"/>
     <use xlink:href="#DejaVuSans-61" transform="translate(1764.943359 0)"/>
     <use xlink:href="#DejaVuSans-6e" transform="translate(1826.222656 0)"/>
     <use xlink:href="#DejaVuSans-64" transform="translate(1889.601562 0)"/>
     <use xlink:href="#DejaVuSans-20" transform="translate(1953.078125 0)"/>
     <use xlink:href="#DejaVuSans-6e" transform="translate(1984.865234 0)"/>
     <use xlink:href="#DejaVuSans-6f" transform="translate(2048.244141 0)"/>
     <use xlink:href="#DejaVuSans-74" transform="translate(2109.425781 0)"/>
     <use xlink:href="#DejaVuSans-20" transform="translate(2148.634766 0)"/>
     <use xlink:href="#DejaVuSans-4b" transform="translate(2180.421875 0)"/>
     <use xlink:href="#DejaVuSans-43" transform="translate(2240.498047 0)"/>
     <use xlink:href="#DejaVuSans-73" transform="translate(2310.322266 0)"/>
    </g>
   </g>
  </g>
 </g>
 <defs>
  <clipPath id="pc5b43d7eae">
   <rect x="43.78125" y="22.318125" width="669.6" height="332.64"/>
  </clipPath>
 </defs>
</svg>
