<?xml version="1.0" encoding="utf-8" standalone="no"?>
<!DOCTYPE svg PUBLIC "-//W3C//DTD SVG 1.1//EN"
  "http://www.w3.org/Graphics/SVG/1.1/DTD/svg11.dtd">
<svg xmlns:xlink="http://www.w3.org/1999/xlink" width="785.309375pt" height="568.649219pt" viewBox="0 0 785.309375 568.649219" xmlns="http://www.w3.org/2000/svg" version="1.1">
 <metadata>
  <rdf:RDF xmlns:dc="http://purl.org/dc/elements/1.1/" xmlns:cc="http://creativecommons.org/ns#" xmlns:rdf="http://www.w3.org/1999/02/22-rdf-syntax-ns#">
   <cc:Work>
    <dc:type rdf:resource="http://purl.org/dc/dcmitype/StillImage"/>
    <dc:date>2026-07-02T22:33:59.970898</dc:date>
    <dc:format>image/svg+xml</dc:format>
    <dc:creator>
     <cc:Agent>
      <dc:title>Matplotlib v3.10.1, https://matplotlib.org/</dc:title>
     </cc:Agent>
    </dc:creator>
   </cc:Work>
  </rdf:RDF>
 </metadata>
 <defs>
  <style type="text/css">*{stroke-linejoin: round; stroke-linecap: butt}</style>
 </defs>
 <g id="figure_1">
  <g id="patch_1">
   <path d="M 0 568.649219 
L 785.309375 568.649219 
L 785.309375 0 
L 0 0 
z
" style="fill: #ffffff"/>
  </g>
  <g id="axes_1">
   <g id="patch_2">
    <path d="M 58.579375 519.479219 
L 778.109375 519.479219 
L 778.109375 10.999219 
L 58.579375 10.999219 
z
" style="fill: #ffffff"/>
   </g>
   <g id="FillBetweenPolyCollection_1">
    <defs>
     <path id="m12d8ed69ad" d="M 176.675769 -346.399108 
L 176.675769 -160.423352 
L 179.187005 -160.735469 
L 181.69824 -161.04382 
L 184.209475 -161.348314 
L 186.72071 -161.648852 
L 189.231946 -161.945336 
L 191.743181 -162.237665 
L 194.254416 -162.525733 
L 196.765651 -162.809435 
L 199.276887 -163.088658 
L 201.788122 -163.363289 
L 204.299357 -163.633213 
L 206.810592 -163.898309 
L 209.321828 -164.158455 
L 211.833063 -164.413523 
L 214.344298 -164.663385 
L 216.855533 -164.907907 
L 219.366768 -165.146953 
L 221.878004 -165.380383 
L 224.389239 -165.608052 
L 226.900474 -165.829814 
L 229.411709 -166.045516 
L 231.922945 -166.255006 
L 234.43418 -166.458123 
L 236.945415 -166.654705 
L 239.45665 -166.844586 
L 241.967886 -167.027596 
L 244.479121 -167.20356 
L 246.990356 -167.372301 
L 249.501591 -167.533637 
L 252.012827 -167.687382 
L 254.524062 -167.833347 
L 257.035297 -167.971338 
L 259.546532 -168.101159 
L 262.057768 -168.22261 
L 264.569003 -168.335485 
L 267.080238 -168.439577 
L 269.591473 -168.534677 
L 272.102709 -168.620568 
L 274.613944 -168.697036 
L 277.125179 -168.763859 
L 279.636414 -168.820815 
L 282.147649 -168.867679 
L 284.658885 -168.904224 
L 287.17012 -168.930222 
L 289.681355 -168.945442 
L 292.19259 -168.949652 
L 294.703826 -168.942619 
L 297.215061 -168.924111 
L 299.726296 -168.893893 
L 302.237531 -168.851734 
L 304.748767 -168.797402 
L 307.260002 -168.730664 
L 309.771237 -168.651293 
L 312.282472 -168.559061 
L 314.793708 -168.453744 
L 317.304943 -168.335122 
L 319.816178 -168.202978 
L 322.327413 -168.0571 
L 324.838649 -167.897282 
L 327.349884 -167.723321 
L 329.861119 -167.535024 
L 332.372354 -167.332203 
L 334.883589 -167.114678 
L 337.394825 -166.882278 
L 339.90606 -166.634838 
L 342.417295 -166.372207 
L 344.92853 -166.09424 
L 347.439766 -165.800806 
L 349.951001 -165.491781 
L 352.462236 -165.167056 
L 354.973471 -164.826533 
L 357.484707 -164.470126 
L 359.995942 -164.097762 
L 362.507177 -163.70938 
L 365.018412 -163.304934 
L 367.529648 -162.884391 
L 370.040883 -162.44773 
L 372.552118 -161.994945 
L 375.063353 -161.526045 
L 377.574589 -161.041051 
L 380.085824 -160.539997 
L 382.597059 -160.022933 
L 385.108294 -159.489919 
L 387.61953 -158.94103 
L 390.130765 -158.376355 
L 392.642 -157.795991 
L 395.153235 -157.200052 
L 397.66447 -156.58866 
L 400.175706 -155.961949 
L 402.686941 -155.320064 
L 405.198176 -154.663159 
L 407.709411 -153.991398 
L 410.220647 -153.304954 
L 412.731882 -152.604008 
L 415.243117 -151.888749 
L 417.754352 -151.159371 
L 420.265588 -150.416076 
L 422.776823 -149.659073 
L 425.288058 -148.888573 
L 427.799293 -148.104794 
L 430.310529 -147.307957 
L 432.821764 -146.498286 
L 435.332999 -145.676008 
L 437.844234 -144.841353 
L 440.35547 -143.994552 
L 442.866705 -143.135836 
L 445.37794 -142.26544 
L 447.889175 -141.383595 
L 450.40041 -140.490536 
L 452.911646 -139.586494 
L 455.422881 -138.671702 
L 457.934116 -137.746389 
L 460.445351 -136.810785 
L 462.956587 -135.865116 
L 465.467822 -134.909606 
L 467.979057 -133.944478 
L 470.490292 -132.969952 
L 473.001528 -131.986244 
L 475.512763 -130.993568 
L 478.023998 -129.992134 
L 480.535233 -128.982149 
L 483.046469 -127.963818 
L 485.557704 -126.93734 
L 488.068939 -125.902911 
L 490.580174 -124.860726 
L 493.09141 -123.810971 
L 495.602645 -122.753833 
L 498.11388 -121.689494 
L 500.625115 -120.61813 
L 503.136351 -119.539915 
L 505.647586 -118.455018 
L 508.158821 -117.363607 
L 510.670056 -116.265842 
L 513.181291 -115.161883 
L 515.692527 -114.051882 
L 518.203762 -112.935992 
L 520.714997 -111.814359 
L 523.226232 -110.687126 
L 525.737468 -109.554434 
L 528.248703 -108.416417 
L 530.759938 -107.27321 
L 533.271173 -106.124941 
L 535.782409 -104.971736 
L 538.293644 -103.813718 
L 540.804879 -102.651006 
L 543.316114 -101.483716 
L 545.82735 -100.311961 
L 548.338585 -99.135852 
L 550.84982 -97.955495 
L 553.361055 -96.770995 
L 555.872291 -95.582453 
L 558.383526 -94.389968 
L 560.894761 -93.193636 
L 563.405996 -91.993549 
L 565.917232 -90.789799 
L 568.428467 -89.582474 
L 570.939702 -88.37166 
L 573.450937 -87.15744 
L 575.962172 -85.939896 
L 578.473408 -84.719107 
L 580.984643 -83.495149 
L 583.495878 -82.268097 
L 586.007113 -81.038024 
L 588.518349 -79.805 
L 591.029584 -78.569095 
L 593.540819 -77.330375 
L 596.052054 -76.088905 
L 598.56329 -74.844748 
L 601.074525 -73.597967 
L 603.58576 -72.34862 
L 606.096995 -71.096766 
L 608.608231 -69.842462 
L 611.119466 -68.585763 
L 613.630701 -67.326723 
L 616.141936 -66.065393 
L 618.653172 -64.801825 
L 621.164407 -63.536068 
L 623.675642 -62.268171 
L 626.186877 -60.998179 
L 628.698112 -59.726138 
L 631.209348 -58.452094 
L 633.720583 -57.176089 
L 636.231818 -55.898166 
L 638.743053 -54.618364 
L 641.254289 -53.336725 
L 643.765524 -52.053287 
L 646.276759 -50.768088 
L 648.787994 -49.481165 
L 651.29923 -48.192554 
L 653.810465 -46.90229 
L 656.3217 -45.610406 
L 658.832935 -44.316937 
L 661.344171 -43.021914 
L 663.855406 -41.72537 
L 666.366641 -40.427334 
L 668.877876 -39.127838 
L 671.389112 -37.82691 
L 673.900347 -36.524578 
L 676.411582 -35.220872 
L 676.411582 -294.983418 
L 676.411582 -294.983418 
L 673.900347 -294.56724 
L 671.389112 -294.152437 
L 668.877876 -293.739037 
L 666.366641 -293.327069 
L 663.855406 -292.916562 
L 661.344171 -292.507546 
L 658.832935 -292.100052 
L 656.3217 -291.694111 
L 653.810465 -291.289756 
L 651.29923 -290.88702 
L 648.787994 -290.485938 
L 646.276759 -290.086543 
L 643.765524 -289.688873 
L 641.254289 -289.292963 
L 638.743053 -288.898853 
L 636.231818 -288.50658 
L 633.720583 -288.116185 
L 631.209348 -287.727708 
L 628.698112 -287.341192 
L 626.186877 -286.956681 
L 623.675642 -286.574217 
L 621.164407 -286.193848 
L 618.653172 -285.81562 
L 616.141936 -285.43958 
L 613.630701 -285.065779 
L 611.119466 -284.694267 
L 608.608231 -284.325097 
L 606.096995 -283.958321 
L 603.58576 -283.593996 
L 601.074525 -283.232178 
L 598.56329 -282.872925 
L 596.052054 -282.516297 
L 593.540819 -282.162355 
L 591.029584 -281.811164 
L 588.518349 -281.462787 
L 586.007113 -281.117292 
L 583.495878 -280.774747 
L 580.984643 -280.435224 
L 578.473408 -280.098794 
L 575.962172 -279.765533 
L 573.450937 -279.435518 
L 570.939702 -279.108827 
L 568.428467 -278.785541 
L 565.917232 -278.465744 
L 563.405996 -278.149523 
L 560.894761 -277.836965 
L 558.383526 -277.528161 
L 555.872291 -277.223204 
L 553.361055 -276.92219 
L 550.84982 -276.625219 
L 548.338585 -276.332391 
L 545.82735 -276.04381 
L 543.316114 -275.759584 
L 540.804879 -275.479822 
L 538.293644 -275.204639 
L 535.782409 -274.934149 
L 533.271173 -274.668473 
L 530.759938 -274.407732 
L 528.248703 -274.152053 
L 525.737468 -273.901565 
L 523.226232 -273.656401 
L 520.714997 -273.416697 
L 518.203762 -273.182593 
L 515.692527 -272.954231 
L 513.181291 -272.731759 
L 510.670056 -272.515328 
L 508.158821 -272.305092 
L 505.647586 -272.101209 
L 503.136351 -271.903841 
L 500.625115 -271.713155 
L 498.11388 -271.529319 
L 495.602645 -271.352508 
L 493.09141 -271.182899 
L 490.580174 -271.020673 
L 488.068939 -270.866015 
L 485.557704 -270.719115 
L 483.046469 -270.580166 
L 480.535233 -270.449363 
L 478.023998 -270.326907 
L 475.512763 -270.213001 
L 473.001528 -270.107854 
L 470.490292 -270.011674 
L 467.979057 -269.924676 
L 465.467822 -269.847077 
L 462.956587 -269.779096 
L 460.445351 -269.720955 
L 457.934116 -269.672879 
L 455.422881 -269.635095 
L 452.911646 -269.607831 
L 450.40041 -269.591318 
L 447.889175 -269.585787 
L 445.37794 -269.591471 
L 442.866705 -269.608603 
L 440.35547 -269.637416 
L 437.844234 -269.678143 
L 435.332999 -269.731017 
L 432.821764 -269.796268 
L 430.310529 -269.874125 
L 427.799293 -269.964816 
L 425.288058 -270.068566 
L 422.776823 -270.185595 
L 420.265588 -270.31612 
L 417.754352 -270.460354 
L 415.243117 -270.618504 
L 412.731882 -270.790773 
L 410.220647 -270.977356 
L 407.709411 -271.17844 
L 405.198176 -271.394208 
L 402.686941 -271.624832 
L 400.175706 -271.870475 
L 397.66447 -272.131293 
L 395.153235 -272.407429 
L 392.642 -272.699018 
L 390.130765 -273.006183 
L 387.61953 -273.329036 
L 385.108294 -273.667676 
L 382.597059 -274.022191 
L 380.085824 -274.392655 
L 377.574589 -274.779129 
L 375.063353 -275.181664 
L 372.552118 -275.600292 
L 370.040883 -276.035036 
L 367.529648 -276.485904 
L 365.018412 -276.952889 
L 362.507177 -277.435971 
L 359.995942 -277.935118 
L 357.484707 -278.450282 
L 354.973471 -278.981404 
L 352.462236 -279.528409 
L 349.951001 -280.091213 
L 347.439766 -280.669717 
L 344.92853 -281.263811 
L 342.417295 -281.873373 
L 339.90606 -282.49827 
L 337.394825 -283.138359 
L 334.883589 -283.793487 
L 332.372354 -284.46349 
L 329.861119 -285.148198 
L 327.349884 -285.847429 
L 324.838649 -286.560997 
L 322.327413 -287.288707 
L 319.816178 -288.030358 
L 317.304943 -288.785743 
L 314.793708 -289.554649 
L 312.282472 -290.336861 
L 309.771237 -291.132157 
L 307.260002 -291.940314 
L 304.748767 -292.761105 
L 302.237531 -293.594301 
L 299.726296 -294.439671 
L 297.215061 -295.296982 
L 294.703826 -296.166002 
L 292.19259 -297.046498 
L 289.681355 -297.938236 
L 287.17012 -298.840984 
L 284.658885 -299.75451 
L 282.147649 -300.678584 
L 279.636414 -301.612977 
L 277.125179 -302.557462 
L 274.613944 -303.511813 
L 272.102709 -304.475809 
L 269.591473 -305.449229 
L 267.080238 -306.431857 
L 264.569003 -307.423478 
L 262.057768 -308.423882 
L 259.546532 -309.43286 
L 257.035297 -310.45021 
L 254.524062 -311.47573 
L 252.012827 -312.509223 
L 249.501591 -313.550497 
L 246.990356 -314.599361 
L 244.479121 -315.655631 
L 241.967886 -316.719124 
L 239.45665 -317.789662 
L 236.945415 -318.867072 
L 234.43418 -319.951182 
L 231.922945 -321.041828 
L 229.411709 -322.138845 
L 226.900474 -323.242077 
L 224.389239 -324.351367 
L 221.878004 -325.466565 
L 219.366768 -326.587522 
L 216.855533 -327.714097 
L 214.344298 -328.846148 
L 211.833063 -329.983538 
L 209.321828 -331.126135 
L 206.810592 -332.273809 
L 204.299357 -333.426433 
L 201.788122 -334.583886 
L 199.276887 -335.746046 
L 196.765651 -336.912798 
L 194.254416 -338.084027 
L 191.743181 -339.259624 
L 189.231946 -340.439482 
L 186.72071 -341.623495 
L 184.209475 -342.811561 
L 181.69824 -344.003583 
L 179.187005 -345.199463 
L 176.675769 -346.399108 
z
" style="stroke: #ff0000; stroke-opacity: 0.18"/>
    </defs>
    <g clip-path="url(#pfa0862e775)">
     <use xlink:href="#m12d8ed69ad" x="0" y="568.649219" style="fill: #ff0000; fill-opacity: 0.18; stroke: #ff0000; stroke-opacity: 0.18"/>
    </g>
   </g>
   <g id="FillBetweenPolyCollection_2">
    <defs>
     <path id="m2bc6ceecec" d="M 176.675769 -293.391651 
L 176.675769 -41.887262 
L 177.727354 -43.450091 
L 178.778939 -45.011067 
L 179.830524 -46.570151 
L 180.882109 -48.127303 
L 181.933693 -49.682484 
L 182.985278 -51.23565 
L 184.036863 -52.78676 
L 185.088448 -54.335768 
L 186.140033 -55.882631 
L 187.191617 -57.4273 
L 188.243202 -58.96973 
L 189.294787 -60.509871 
L 190.346372 -62.047672 
L 191.397957 -63.583083 
L 192.449542 -65.116051 
L 193.501126 -66.646521 
L 194.552711 -68.174438 
L 195.604296 -69.699744 
L 196.655881 -71.222381 
L 197.707466 -72.742289 
L 198.75905 -74.259405 
L 199.810635 -75.773667 
L 200.86222 -77.285008 
L 201.913805 -78.793362 
L 202.96539 -80.298661 
L 204.016974 -81.800832 
L 205.068559 -83.299804 
L 206.120144 -84.795503 
L 207.171729 -86.28785 
L 208.223314 -87.776769 
L 209.274898 -89.262178 
L 210.326483 -90.743994 
L 211.378068 -92.222133 
L 212.429653 -93.696505 
L 213.481238 -95.167023 
L 214.532822 -96.633593 
L 215.584407 -98.096121 
L 216.635992 -99.554509 
L 217.687577 -101.008659 
L 218.739162 -102.458466 
L 219.790746 -103.903827 
L 220.842331 -105.344633 
L 221.893916 -106.780773 
L 222.945501 -108.212134 
L 223.997086 -109.638599 
L 225.04867 -111.060049 
L 226.100255 -112.476361 
L 227.15184 -113.887409 
L 228.203425 -115.293064 
L 229.25501 -116.693194 
L 230.306595 -118.087664 
L 231.358179 -119.476335 
L 232.409764 -120.859065 
L 233.461349 -122.235708 
L 234.512934 -123.606116 
L 235.564519 -124.970136 
L 236.616103 -126.327612 
L 237.667688 -127.678386 
L 238.719273 -129.022294 
L 239.770858 -130.35917 
L 240.822443 -131.688844 
L 241.874027 -133.011143 
L 242.925612 -134.325891 
L 243.977197 -135.632907 
L 245.028782 -136.932007 
L 246.080367 -138.223005 
L 247.131951 -139.50571 
L 248.183536 -140.779929 
L 249.235121 -142.045466 
L 250.286706 -143.302121 
L 251.338291 -144.549692 
L 252.389875 -145.787973 
L 253.44146 -147.016758 
L 254.493045 -148.235836 
L 255.54463 -149.444995 
L 256.596215 -150.644021 
L 257.647799 -151.832698 
L 258.699384 -153.010808 
L 259.750969 -154.178133 
L 260.802554 -155.334454 
L 261.854139 -156.479551 
L 262.905724 -157.613203 
L 263.957308 -158.735189 
L 265.008893 -159.845291 
L 266.060478 -160.94329 
L 267.112063 -162.028968 
L 268.163648 -163.102109 
L 269.215232 -164.1625 
L 270.266817 -165.20993 
L 271.318402 -166.244193 
L 272.369987 -167.265083 
L 273.421572 -168.272403 
L 274.473156 -169.265956 
L 275.524741 -170.245553 
L 276.576326 -171.211012 
L 277.627911 -172.162154 
L 278.679496 -173.09881 
L 279.73108 -174.020816 
L 280.782665 -174.928017 
L 281.83425 -175.820268 
L 282.885835 -176.697431 
L 283.93742 -177.559378 
L 284.989004 -178.405991 
L 286.040589 -179.237161 
L 287.092174 -180.052793 
L 288.143759 -180.852799 
L 289.195344 -181.637106 
L 290.246928 -182.405649 
L 291.298513 -183.158379 
L 292.350098 -183.895256 
L 293.401683 -184.616254 
L 294.453268 -185.321357 
L 295.504853 -186.010565 
L 296.556437 -186.683887 
L 297.608022 -187.341347 
L 298.659607 -187.982979 
L 299.711192 -188.60883 
L 300.762777 -189.218961 
L 301.814361 -189.813441 
L 302.865946 -190.392354 
L 303.917531 -190.955793 
L 304.969116 -191.503863 
L 306.020701 -192.036677 
L 307.072285 -192.554362 
L 308.12387 -193.057052 
L 309.175455 -193.544889 
L 310.22704 -194.018028 
L 311.278625 -194.476627 
L 312.330209 -194.920855 
L 313.381794 -195.350887 
L 314.433379 -195.766904 
L 315.484964 -196.169095 
L 316.536549 -196.557652 
L 317.588133 -196.932773 
L 318.639718 -197.294661 
L 319.691303 -197.643522 
L 320.742888 -197.979567 
L 321.794473 -198.303006 
L 322.846057 -198.614056 
L 323.897642 -198.912933 
L 324.949227 -199.199856 
L 326.000812 -199.475045 
L 327.052397 -199.738718 
L 328.103981 -199.991098 
L 329.155566 -200.232402 
L 330.207151 -200.462853 
L 331.258736 -200.682668 
L 332.310321 -200.892065 
L 333.361906 -201.09126 
L 334.41349 -201.280469 
L 335.465075 -201.459903 
L 336.51666 -201.629775 
L 337.568245 -201.790291 
L 338.61983 -201.941659 
L 339.671414 -202.084081 
L 340.722999 -202.217758 
L 341.774584 -202.342886 
L 342.826169 -202.459661 
L 343.877754 -202.568273 
L 344.929338 -202.668911 
L 345.980923 -202.76176 
L 347.032508 -202.846999 
L 348.084093 -202.924808 
L 349.135678 -202.995361 
L 350.187262 -203.058828 
L 351.238847 -203.115377 
L 352.290432 -203.165172 
L 353.342017 -203.208374 
L 354.393602 -203.245138 
L 355.445186 -203.275619 
L 356.496771 -203.299967 
L 357.548356 -203.318327 
L 358.599941 -203.330844 
L 359.651526 -203.337657 
L 360.70311 -203.338903 
L 361.754695 -203.334714 
L 362.80628 -203.32522 
L 363.857865 -203.310549 
L 364.90945 -203.290824 
L 365.961035 -203.266166 
L 367.012619 -203.236691 
L 368.064204 -203.202516 
L 369.115789 -203.16375 
L 370.167374 -203.120504 
L 371.218959 -203.072883 
L 372.270543 -203.02099 
L 373.322128 -202.964927 
L 374.373713 -202.904791 
L 375.425298 -202.840678 
L 376.476883 -202.77268 
L 377.528467 -202.700889 
L 378.580052 -202.625392 
L 379.631637 -202.546276 
L 380.683222 -202.463624 
L 381.734807 -202.377517 
L 382.786391 -202.288035 
L 383.837976 -202.195255 
L 384.889561 -202.099253 
L 385.941146 -202.000101 
L 385.941146 -412.905936 
L 385.941146 -412.905936 
L 384.889561 -411.401622 
L 383.837976 -409.900458 
L 382.786391 -408.402517 
L 381.734807 -406.907873 
L 380.683222 -405.416605 
L 379.631637 -403.928792 
L 378.580052 -402.444514 
L 377.528467 -400.963856 
L 376.476883 -399.486903 
L 375.425298 -398.013744 
L 374.373713 -396.544469 
L 373.322128 -395.079172 
L 372.270543 -393.617947 
L 371.218959 -392.160893 
L 370.167374 -390.708111 
L 369.115789 -389.259703 
L 368.064204 -387.815776 
L 367.012619 -386.376439 
L 365.961035 -384.941803 
L 364.90945 -383.511984 
L 363.857865 -382.087097 
L 362.80628 -380.667265 
L 361.754695 -379.25261 
L 360.70311 -377.843259 
L 359.651526 -376.439343 
L 358.599941 -375.040995 
L 357.548356 -373.64835 
L 356.496771 -372.26155 
L 355.445186 -370.880736 
L 354.393602 -369.506055 
L 353.342017 -368.137658 
L 352.290432 -366.775698 
L 351.238847 -365.420332 
L 350.187262 -364.07172 
L 349.135678 -362.730025 
L 348.084093 -361.395417 
L 347.032508 -360.068064 
L 345.980923 -358.748142 
L 344.929338 -357.435829 
L 343.877754 -356.131306 
L 342.826169 -354.834757 
L 341.774584 -353.54637 
L 340.722999 -352.266337 
L 339.671414 -350.994852 
L 338.61983 -349.732113 
L 337.568245 -348.478319 
L 336.51666 -347.233674 
L 335.465075 -345.998384 
L 334.41349 -344.772658 
L 333.361906 -343.556705 
L 332.310321 -342.350739 
L 331.258736 -341.154974 
L 330.207151 -339.969628 
L 329.155566 -338.794917 
L 328.103981 -337.63106 
L 327.052397 -336.478278 
L 326.000812 -335.33679 
L 324.949227 -334.206817 
L 323.897642 -333.088579 
L 322.846057 -331.982295 
L 321.794473 -330.888183 
L 320.742888 -329.806461 
L 319.691303 -328.737344 
L 318.639718 -327.681044 
L 317.588133 -326.63777 
L 316.536549 -325.60773 
L 315.484964 -324.591126 
L 314.433379 -323.588155 
L 313.381794 -322.599011 
L 312.330209 -321.623882 
L 311.278625 -320.662948 
L 310.22704 -319.716386 
L 309.175455 -318.784363 
L 308.12387 -317.867039 
L 307.072285 -316.964567 
L 306.020701 -316.077091 
L 304.969116 -315.204744 
L 303.917531 -314.347652 
L 302.865946 -313.505929 
L 301.814361 -312.679681 
L 300.762777 -311.869 
L 299.711192 -311.073969 
L 298.659607 -310.294659 
L 297.608022 -309.53113 
L 296.556437 -308.783428 
L 295.504853 -308.051589 
L 294.453268 -307.335635 
L 293.401683 -306.635577 
L 292.350098 -305.951413 
L 291.298513 -305.283129 
L 290.246928 -304.630697 
L 289.195344 -303.994079 
L 288.143759 -303.373225 
L 287.092174 -302.768069 
L 286.040589 -302.178539 
L 284.989004 -301.604549 
L 283.93742 -301.046 
L 282.885835 -300.502785 
L 281.83425 -299.974787 
L 280.782665 -299.461876 
L 279.73108 -298.963916 
L 278.679496 -298.480761 
L 277.627911 -298.012255 
L 276.576326 -297.558236 
L 275.524741 -297.118533 
L 274.473156 -296.692969 
L 273.421572 -296.281361 
L 272.369987 -295.883519 
L 271.318402 -295.499248 
L 270.266817 -295.128349 
L 269.215232 -294.770618 
L 268.163648 -294.425848 
L 267.112063 -294.093827 
L 266.060478 -293.774344 
L 265.008893 -293.467181 
L 263.957308 -293.172121 
L 262.905724 -292.888947 
L 261.854139 -292.617437 
L 260.802554 -292.357372 
L 259.750969 -292.108532 
L 258.699384 -291.870696 
L 257.647799 -291.643645 
L 256.596215 -291.42716 
L 255.54463 -291.221024 
L 254.493045 -291.025022 
L 253.44146 -290.838938 
L 252.389875 -290.662562 
L 251.338291 -290.495682 
L 250.286706 -290.338091 
L 249.235121 -290.189585 
L 248.183536 -290.04996 
L 247.131951 -289.919018 
L 246.080367 -289.796562 
L 245.028782 -289.682398 
L 243.977197 -289.576337 
L 242.925612 -289.478191 
L 241.874027 -289.387777 
L 240.822443 -289.304915 
L 239.770858 -289.229428 
L 238.719273 -289.161143 
L 237.667688 -289.099889 
L 236.616103 -289.045502 
L 235.564519 -288.997817 
L 234.512934 -288.956675 
L 233.461349 -288.921921 
L 232.409764 -288.893403 
L 231.358179 -288.870971 
L 230.306595 -288.854481 
L 229.25501 -288.843789 
L 228.203425 -288.838758 
L 227.15184 -288.839252 
L 226.100255 -288.845138 
L 225.04867 -288.856289 
L 223.997086 -288.872577 
L 222.945501 -288.893881 
L 221.893916 -288.920081 
L 220.842331 -288.95106 
L 219.790746 -288.986704 
L 218.739162 -289.026903 
L 217.687577 -289.071549 
L 216.635992 -289.120537 
L 215.584407 -289.173764 
L 214.532822 -289.231131 
L 213.481238 -289.292539 
L 212.429653 -289.357895 
L 211.378068 -289.427107 
L 210.326483 -289.500083 
L 209.274898 -289.576738 
L 208.223314 -289.656986 
L 207.171729 -289.740743 
L 206.120144 -289.82793 
L 205.068559 -289.918467 
L 204.016974 -290.012277 
L 202.96539 -290.109287 
L 201.913805 -290.209424 
L 200.86222 -290.312617 
L 199.810635 -290.418797 
L 198.75905 -290.527897 
L 197.707466 -290.639852 
L 196.655881 -290.754598 
L 195.604296 -290.872074 
L 194.552711 -290.992219 
L 193.501126 -291.114974 
L 192.449542 -291.240283 
L 191.397957 -291.368089 
L 190.346372 -291.498338 
L 189.294787 -291.630979 
L 188.243202 -291.765958 
L 187.191617 -291.903226 
L 186.140033 -292.042735 
L 185.088448 -292.184435 
L 184.036863 -292.328282 
L 182.985278 -292.474231 
L 181.933693 -292.622236 
L 180.882109 -292.772255 
L 179.830524 -292.924246 
L 178.778939 -293.078169 
L 177.727354 -293.233983 
L 176.675769 -293.391651 
z
" style="stroke: #000000; stroke-opacity: 0.13"/>
    </defs>
    <g clip-path="url(#pfa0862e775)">
     <use xlink:href="#m2bc6ceecec" x="0" y="568.649219" style="fill-opacity: 0.13; stroke: #000000; stroke-opacity: 0.13"/>
    </g>
   </g>
   <g id="matplotlib.axis_1">
    <g id="xtick_1">
     <g id="line2d_1">
      <defs>
       <path id="m2011a56f29" d="M 0 0 
L 0 3.5 
" style="stroke: #000000; stroke-width: 0.8"/>
      </defs>
      <g>
       <use xlink:href="#m2011a56f29" x="118.540208" y="519.479219" style="stroke: #000000; stroke-width: 0.8"/>
      </g>
     </g>
     <g id="text_1">
      <!-- 0.18 -->
      <g transform="translate(107.407396 534.077656) scale(0.1 -0.1)">
       <defs>
        <path id="DejaVuSans-30" d="M 2034 4250 
Q 1547 4250 1301 3770 
Q 1056 3291 1056 2328 
Q 1056 1369 1301 889 
Q 1547 409 2034 409 
Q 2525 409 2770 889 
Q 3016 1369 3016 2328 
Q 3016 3291 2770 3770 
Q 2525 4250 2034 4250 
z
M 2034 4750 
Q 2819 4750 3233 4129 
Q 3647 3509 3647 2328 
Q 3647 1150 3233 529 
Q 2819 -91 2034 -91 
Q 1250 -91 836 529 
Q 422 1150 422 2328 
Q 422 3509 836 4129 
Q 1250 4750 2034 4750 
z
" transform="scale(0.015625)"/>
        <path id="DejaVuSans-2e" d="M 684 794 
L 1344 794 
L 1344 0 
L 684 0 
L 684 794 
z
" transform="scale(0.015625)"/>
        <path id="DejaVuSans-31" d="M 794 531 
L 1825 531 
L 1825 4091 
L 703 3866 
L 703 4441 
L 1819 4666 
L 2450 4666 
L 2450 531 
L 3481 531 
L 3481 0 
L 794 0 
L 794 531 
z
" transform="scale(0.015625)"/>
        <path id="DejaVuSans-38" d="M 2034 2216 
Q 1584 2216 1326 1975 
Q 1069 1734 1069 1313 
Q 1069 891 1326 650 
Q 1584 409 2034 409 
Q 2484 409 2743 651 
Q 3003 894 3003 1313 
Q 3003 1734 2745 1975 
Q 2488 2216 2034 2216 
z
M 1403 2484 
Q 997 2584 770 2862 
Q 544 3141 544 3541 
Q 544 4100 942 4425 
Q 1341 4750 2034 4750 
Q 2731 4750 3128 4425 
Q 3525 4100 3525 3541 
Q 3525 3141 3298 2862 
Q 3072 2584 2669 2484 
Q 3125 2378 3379 2068 
Q 3634 1759 3634 1313 
Q 3634 634 3220 271 
Q 2806 -91 2034 -91 
Q 1263 -91 848 271 
Q 434 634 434 1313 
Q 434 1759 690 2068 
Q 947 2378 1403 2484 
z
M 1172 3481 
Q 1172 3119 1398 2916 
Q 1625 2713 2034 2713 
Q 2441 2713 2670 2916 
Q 2900 3119 2900 3481 
Q 2900 3844 2670 4047 
Q 2441 4250 2034 4250 
Q 1625 4250 1398 4047 
Q 1172 3844 1172 3481 
z
" transform="scale(0.015625)"/>
       </defs>
       <use xlink:href="#DejaVuSans-30"/>
       <use xlink:href="#DejaVuSans-2e" transform="translate(63.623047 0)"/>
       <use xlink:href="#DejaVuSans-31" transform="translate(95.410156 0)"/>
       <use xlink:href="#DejaVuSans-38" transform="translate(159.033203 0)"/>
      </g>
     </g>
    </g>
    <g id="xtick_2">
     <g id="line2d_2">
      <g>
       <use xlink:href="#m2011a56f29" x="238.461875" y="519.479219" style="stroke: #000000; stroke-width: 0.8"/>
      </g>
     </g>
     <g id="text_2">
      <!-- 0.20 -->
      <g transform="translate(227.329063 534.077656) scale(0.1 -0.1)">
       <defs>
        <path id="DejaVuSans-32" d="M 1228 531 
L 3431 531 
L 3431 0 
L 469 0 
L 469 531 
Q 828 903 1448 1529 
Q 2069 2156 2228 2338 
Q 2531 2678 2651 2914 
Q 2772 3150 2772 3378 
Q 2772 3750 2511 3984 
Q 2250 4219 1831 4219 
Q 1534 4219 1204 4116 
Q 875 4013 500 3803 
L 500 4441 
Q 881 4594 1212 4672 
Q 1544 4750 1819 4750 
Q 2544 4750 2975 4387 
Q 3406 4025 3406 3419 
Q 3406 3131 3298 2873 
Q 3191 2616 2906 2266 
Q 2828 2175 2409 1742 
Q 1991 1309 1228 531 
z
" transform="scale(0.015625)"/>
       </defs>
       <use xlink:href="#DejaVuSans-30"/>
       <use xlink:href="#DejaVuSans-2e" transform="translate(63.623047 0)"/>
       <use xlink:href="#DejaVuSans-32" transform="translate(95.410156 0)"/>
       <use xlink:href="#DejaVuSans-30" transform="translate(159.033203 0)"/>
      </g>
     </g>
    </g>
    <g id="xtick_3">
     <g id="line2d_3">
      <g>
       <use xlink:href="#m2011a56f29" x="358.383542" y="519.479219" style="stroke: #000000; stroke-width: 0.8"/>
      </g>
     </g>
     <g id="text_3">
      <!-- 0.22 -->
      <g transform="translate(347.250729 534.077656) scale(0.1 -0.1)">
       <use xlink:href="#DejaVuSans-30"/>
       <use xlink:href="#DejaVuSans-2e" transform="translate(63.623047 0)"/>
       <use xlink:href="#DejaVuSans-32" transform="translate(95.410156 0)"/>
       <use xlink:href="#DejaVuSans-32" transform="translate(159.033203 0)"/>
      </g>
     </g>
    </g>
    <g id="xtick_4">
     <g id="line2d_4">
      <g>
       <use xlink:href="#m2011a56f29" x="478.305208" y="519.479219" style="stroke: #000000; stroke-width: 0.8"/>
      </g>
     </g>
     <g id="text_4">
      <!-- 0.24 -->
      <g transform="translate(467.172396 534.077656) scale(0.1 -0.1)">
       <defs>
        <path id="DejaVuSans-34" d="M 2419 4116 
L 825 1625 
L 2419 1625 
L 2419 4116 
z
M 2253 4666 
L 3047 4666 
L 3047 1625 
L 3713 1625 
L 3713 1100 
L 3047 1100 
L 3047 0 
L 2419 0 
L 2419 1100 
L 313 1100 
L 313 1709 
L 2253 4666 
z
" transform="scale(0.015625)"/>
       </defs>
       <use xlink:href="#DejaVuSans-30"/>
       <use xlink:href="#DejaVuSans-2e" transform="translate(63.623047 0)"/>
       <use xlink:href="#DejaVuSans-32" transform="translate(95.410156 0)"/>
       <use xlink:href="#DejaVuSans-34" transform="translate(159.033203 0)"/>
      </g>
     </g>
    </g>
    <g id="xtick_5">
     <g id="line2d_5">
      <g>
       <use xlink:href="#m2011a56f29" x="598.226875" y="519.479219" style="stroke: #000000; stroke-width: 0.8"/>
      </g>
     </g>
     <g id="text_5">
      <!-- 0.26 -->
      <g transform="translate(587.094062 534.077656) scale(0.1 -0.1)">
       <defs>
        <path id="DejaVuSans-36" d="M 2113 2584 
Q 1688 2584 1439 2293 
Q 1191 2003 1191 1497 
Q 1191 994 1439 701 
Q 1688 409 2113 409 
Q 2538 409 2786 701 
Q 3034 994 3034 1497 
Q 3034 2003 2786 2293 
Q 2538 2584 2113 2584 
z
M 3366 4563 
L 3366 3988 
Q 3128 4100 2886 4159 
Q 2644 4219 2406 4219 
Q 1781 4219 1451 3797 
Q 1122 3375 1075 2522 
Q 1259 2794 1537 2939 
Q 1816 3084 2150 3084 
Q 2853 3084 3261 2657 
Q 3669 2231 3669 1497 
Q 3669 778 3244 343 
Q 2819 -91 2113 -91 
Q 1303 -91 875 529 
Q 447 1150 447 2328 
Q 447 3434 972 4092 
Q 1497 4750 2381 4750 
Q 2619 4750 2861 4703 
Q 3103 4656 3366 4563 
z
" transform="scale(0.015625)"/>
       </defs>
       <use xlink:href="#DejaVuSans-30"/>
       <use xlink:href="#DejaVuSans-2e" transform="translate(63.623047 0)"/>
       <use xlink:href="#DejaVuSans-32" transform="translate(95.410156 0)"/>
       <use xlink:href="#DejaVuSans-36" transform="translate(159.033203 0)"/>
      </g>
     </g>
    </g>
    <g id="xtick_6">
     <g id="line2d_6">
      <g>
       <use xlink:href="#m2011a56f29" x="718.148542" y="519.479219" style="stroke: #000000; stroke-width: 0.8"/>
      </g>
     </g>
     <g id="text_6">
      <!-- 0.28 -->
      <g transform="translate(707.015729 534.077656) scale(0.1 -0.1)">
       <use xlink:href="#DejaVuSans-30"/>
       <use xlink:href="#DejaVuSans-2e" transform="translate(63.623047 0)"/>
       <use xlink:href="#DejaVuSans-32" transform="translate(95.410156 0)"/>
       <use xlink:href="#DejaVuSans-38" transform="translate(159.033203 0)"/>
      </g>
     </g>
    </g>
    <g id="text_7">
     <!-- Median Pairwise Distance (μm) -->
     <g transform="translate(248.444219 556.873906) scale(0.22 -0.22)">
      <defs>
       <path id="DejaVuSans-4d" d="M 628 4666 
L 1569 4666 
L 2759 1491 
L 3956 4666 
L 4897 4666 
L 4897 0 
L 4281 0 
L 4281 4097 
L 3078 897 
L 2444 897 
L 1241 4097 
L 1241 0 
L 628 0 
L 628 4666 
z
" transform="scale(0.015625)"/>
       <path id="DejaVuSans-65" d="M 3597 1894 
L 3597 1613 
L 953 1613 
Q 991 1019 1311 708 
Q 1631 397 2203 397 
Q 2534 397 2845 478 
Q 3156 559 3463 722 
L 3463 178 
Q 3153 47 2828 -22 
Q 2503 -91 2169 -91 
Q 1331 -91 842 396 
Q 353 884 353 1716 
Q 353 2575 817 3079 
Q 1281 3584 2069 3584 
Q 2775 3584 3186 3129 
Q 3597 2675 3597 1894 
z
M 3022 2063 
Q 3016 2534 2758 2815 
Q 2500 3097 2075 3097 
Q 1594 3097 1305 2825 
Q 1016 2553 972 2059 
L 3022 2063 
z
" transform="scale(0.015625)"/>
       <path id="DejaVuSans-64" d="M 2906 2969 
L 2906 4863 
L 3481 4863 
L 3481 0 
L 2906 0 
L 2906 525 
Q 2725 213 2448 61 
Q 2172 -91 1784 -91 
Q 1150 -91 751 415 
Q 353 922 353 1747 
Q 353 2572 751 3078 
Q 1150 3584 1784 3584 
Q 2172 3584 2448 3432 
Q 2725 3281 2906 2969 
z
M 947 1747 
Q 947 1113 1208 752 
Q 1469 391 1925 391 
Q 2381 391 2643 752 
Q 2906 1113 2906 1747 
Q 2906 2381 2643 2742 
Q 2381 3103 1925 3103 
Q 1469 3103 1208 2742 
Q 947 2381 947 1747 
z
" transform="scale(0.015625)"/>
       <path id="DejaVuSans-69" d="M 603 3500 
L 1178 3500 
L 1178 0 
L 603 0 
L 603 3500 
z
M 603 4863 
L 1178 4863 
L 1178 4134 
L 603 4134 
L 603 4863 
z
" transform="scale(0.015625)"/>
       <path id="DejaVuSans-61" d="M 2194 1759 
Q 1497 1759 1228 1600 
Q 959 1441 959 1056 
Q 959 750 1161 570 
Q 1363 391 1709 391 
Q 2188 391 2477 730 
Q 2766 1069 2766 1631 
L 2766 1759 
L 2194 1759 
z
M 3341 1997 
L 3341 0 
L 2766 0 
L 2766 531 
Q 2569 213 2275 61 
Q 1981 -91 1556 -91 
Q 1019 -91 701 211 
Q 384 513 384 1019 
Q 384 1609 779 1909 
Q 1175 2209 1959 2209 
L 2766 2209 
L 2766 2266 
Q 2766 2663 2505 2880 
Q 2244 3097 1772 3097 
Q 1472 3097 1187 3025 
Q 903 2953 641 2809 
L 641 3341 
Q 956 3463 1253 3523 
Q 1550 3584 1831 3584 
Q 2591 3584 2966 3190 
Q 3341 2797 3341 1997 
z
" transform="scale(0.015625)"/>
       <path id="DejaVuSans-6e" d="M 3513 2113 
L 3513 0 
L 2938 0 
L 2938 2094 
Q 2938 2591 2744 2837 
Q 2550 3084 2163 3084 
Q 1697 3084 1428 2787 
Q 1159 2491 1159 1978 
L 1159 0 
L 581 0 
L 581 3500 
L 1159 3500 
L 1159 2956 
Q 1366 3272 1645 3428 
Q 1925 3584 2291 3584 
Q 2894 3584 3203 3211 
Q 3513 2838 3513 2113 
z
" transform="scale(0.015625)"/>
       <path id="DejaVuSans-20" transform="scale(0.015625)"/>
       <path id="DejaVuSans-50" d="M 1259 4147 
L 1259 2394 
L 2053 2394 
Q 2494 2394 2734 2622 
Q 2975 2850 2975 3272 
Q 2975 3691 2734 3919 
Q 2494 4147 2053 4147 
L 1259 4147 
z
M 628 4666 
L 2053 4666 
Q 2838 4666 3239 4311 
Q 3641 3956 3641 3272 
Q 3641 2581 3239 2228 
Q 2838 1875 2053 1875 
L 1259 1875 
L 1259 0 
L 628 0 
L 628 4666 
z
" transform="scale(0.015625)"/>
       <path id="DejaVuSans-72" d="M 2631 2963 
Q 2534 3019 2420 3045 
Q 2306 3072 2169 3072 
Q 1681 3072 1420 2755 
Q 1159 2438 1159 1844 
L 1159 0 
L 581 0 
L 581 3500 
L 1159 3500 
L 1159 2956 
Q 1341 3275 1631 3429 
Q 1922 3584 2338 3584 
Q 2397 3584 2469 3576 
Q 2541 3569 2628 3553 
L 2631 2963 
z
" transform="scale(0.015625)"/>
       <path id="DejaVuSans-77" d="M 269 3500 
L 844 3500 
L 1563 769 
L 2278 3500 
L 2956 3500 
L 3675 769 
L 4391 3500 
L 4966 3500 
L 4050 0 
L 3372 0 
L 2619 2869 
L 1863 0 
L 1184 0 
L 269 3500 
z
" transform="scale(0.015625)"/>
       <path id="DejaVuSans-73" d="M 2834 3397 
L 2834 2853 
Q 2591 2978 2328 3040 
Q 2066 3103 1784 3103 
Q 1356 3103 1142 2972 
Q 928 2841 928 2578 
Q 928 2378 1081 2264 
Q 1234 2150 1697 2047 
L 1894 2003 
Q 2506 1872 2764 1633 
Q 3022 1394 3022 966 
Q 3022 478 2636 193 
Q 2250 -91 1575 -91 
Q 1294 -91 989 -36 
Q 684 19 347 128 
L 347 722 
Q 666 556 975 473 
Q 1284 391 1588 391 
Q 1994 391 2212 530 
Q 2431 669 2431 922 
Q 2431 1156 2273 1281 
Q 2116 1406 1581 1522 
L 1381 1569 
Q 847 1681 609 1914 
Q 372 2147 372 2553 
Q 372 3047 722 3315 
Q 1072 3584 1716 3584 
Q 2034 3584 2315 3537 
Q 2597 3491 2834 3397 
z
" transform="scale(0.015625)"/>
       <path id="DejaVuSans-44" d="M 1259 4147 
L 1259 519 
L 2022 519 
Q 2988 519 3436 956 
Q 3884 1394 3884 2338 
Q 3884 3275 3436 3711 
Q 2988 4147 2022 4147 
L 1259 4147 
z
M 628 4666 
L 1925 4666 
Q 3281 4666 3915 4102 
Q 4550 3538 4550 2338 
Q 4550 1131 3912 565 
Q 3275 0 1925 0 
L 628 0 
L 628 4666 
z
" transform="scale(0.015625)"/>
       <path id="DejaVuSans-74" d="M 1172 4494 
L 1172 3500 
L 2356 3500 
L 2356 3053 
L 1172 3053 
L 1172 1153 
Q 1172 725 1289 603 
Q 1406 481 1766 481 
L 2356 481 
L 2356 0 
L 1766 0 
Q 1100 0 847 248 
Q 594 497 594 1153 
L 594 3053 
L 172 3053 
L 172 3500 
L 594 3500 
L 594 4494 
L 1172 4494 
z
" transform="scale(0.015625)"/>
       <path id="DejaVuSans-63" d="M 3122 3366 
L 3122 2828 
Q 2878 2963 2633 3030 
Q 2388 3097 2138 3097 
Q 1578 3097 1268 2742 
Q 959 2388 959 1747 
Q 959 1106 1268 751 
Q 1578 397 2138 397 
Q 2388 397 2633 464 
Q 2878 531 3122 666 
L 3122 134 
Q 2881 22 2623 -34 
Q 2366 -91 2075 -91 
Q 1284 -91 818 406 
Q 353 903 353 1747 
Q 353 2603 823 3093 
Q 1294 3584 2113 3584 
Q 2378 3584 2631 3529 
Q 2884 3475 3122 3366 
z
" transform="scale(0.015625)"/>
       <path id="DejaVuSans-28" d="M 1984 4856 
Q 1566 4138 1362 3434 
Q 1159 2731 1159 2009 
Q 1159 1288 1364 580 
Q 1569 -128 1984 -844 
L 1484 -844 
Q 1016 -109 783 600 
Q 550 1309 550 2009 
Q 550 2706 781 3412 
Q 1013 4119 1484 4856 
L 1984 4856 
z
" transform="scale(0.015625)"/>
       <path id="DejaVuSans-3bc" d="M 544 -1331 
L 544 3500 
L 1119 3500 
L 1119 1325 
Q 1119 872 1334 640 
Q 1550 409 1972 409 
Q 2434 409 2667 671 
Q 2900 934 2900 1459 
L 2900 3500 
L 3475 3500 
L 3475 806 
Q 3475 619 3529 530 
Q 3584 441 3700 441 
Q 3728 441 3778 458 
Q 3828 475 3916 513 
L 3916 50 
Q 3788 -22 3673 -56 
Q 3559 -91 3450 -91 
Q 3234 -91 3106 31 
Q 2978 153 2931 403 
Q 2775 156 2548 32 
Q 2322 -91 2016 -91 
Q 1697 -91 1473 31 
Q 1250 153 1119 397 
L 1119 -1331 
L 544 -1331 
z
" transform="scale(0.015625)"/>
       <path id="DejaVuSans-6d" d="M 3328 2828 
Q 3544 3216 3844 3400 
Q 4144 3584 4550 3584 
Q 5097 3584 5394 3201 
Q 5691 2819 5691 2113 
L 5691 0 
L 5113 0 
L 5113 2094 
Q 5113 2597 4934 2840 
Q 4756 3084 4391 3084 
Q 3944 3084 3684 2787 
Q 3425 2491 3425 1978 
L 3425 0 
L 2847 0 
L 2847 2094 
Q 2847 2600 2669 2842 
Q 2491 3084 2119 3084 
Q 1678 3084 1418 2786 
Q 1159 2488 1159 1978 
L 1159 0 
L 581 0 
L 581 3500 
L 1159 3500 
L 1159 2956 
Q 1356 3278 1631 3431 
Q 1906 3584 2284 3584 
Q 2666 3584 2933 3390 
Q 3200 3197 3328 2828 
z
" transform="scale(0.015625)"/>
       <path id="DejaVuSans-29" d="M 513 4856 
L 1013 4856 
Q 1481 4119 1714 3412 
Q 1947 2706 1947 2009 
Q 1947 1309 1714 600 
Q 1481 -109 1013 -844 
L 513 -844 
Q 928 -128 1133 580 
Q 1338 1288 1338 2009 
Q 1338 2731 1133 3434 
Q 928 4138 513 4856 
z
" transform="scale(0.015625)"/>
      </defs>
      <use xlink:href="#DejaVuSans-4d"/>
      <use xlink:href="#DejaVuSans-65" transform="translate(86.279297 0)"/>
      <use xlink:href="#DejaVuSans-64" transform="translate(147.802734 0)"/>
      <use xlink:href="#DejaVuSans-69" transform="translate(211.279297 0)"/>
      <use xlink:href="#DejaVuSans-61" transform="translate(239.0625 0)"/>
      <use xlink:href="#DejaVuSans-6e" transform="translate(300.341797 0)"/>
      <use xlink:href="#DejaVuSans-20" transform="translate(363.720703 0)"/>
      <use xlink:href="#DejaVuSans-50" transform="translate(395.507812 0)"/>
      <use xlink:href="#DejaVuSans-61" transform="translate(451.310547 0)"/>
      <use xlink:href="#DejaVuSans-69" transform="translate(512.589844 0)"/>
      <use xlink:href="#DejaVuSans-72" transform="translate(540.373047 0)"/>
      <use xlink:href="#DejaVuSans-77" transform="translate(581.486328 0)"/>
      <use xlink:href="#DejaVuSans-69" transform="translate(663.273438 0)"/>
      <use xlink:href="#DejaVuSans-73" transform="translate(691.056641 0)"/>
      <use xlink:href="#DejaVuSans-65" transform="translate(743.15625 0)"/>
      <use xlink:href="#DejaVuSans-20" transform="translate(804.679688 0)"/>
      <use xlink:href="#DejaVuSans-44" transform="translate(836.466797 0)"/>
      <use xlink:href="#DejaVuSans-69" transform="translate(913.46875 0)"/>
      <use xlink:href="#DejaVuSans-73" transform="translate(941.251953 0)"/>
      <use xlink:href="#DejaVuSans-74" transform="translate(993.351562 0)"/>
      <use xlink:href="#DejaVuSans-61" transform="translate(1032.560547 0)"/>
      <use xlink:href="#DejaVuSans-6e" transform="translate(1093.839844 0)"/>
      <use xlink:href="#DejaVuSans-63" transform="translate(1157.21875 0)"/>
      <use xlink:href="#DejaVuSans-65" transform="translate(1212.199219 0)"/>
      <use xlink:href="#DejaVuSans-20" transform="translate(1273.722656 0)"/>
      <use xlink:href="#DejaVuSans-28" transform="translate(1305.509766 0)"/>
      <use xlink:href="#DejaVuSans-3bc" transform="translate(1344.523438 0)"/>
      <use xlink:href="#DejaVuSans-6d" transform="translate(1408.146484 0)"/>
      <use xlink:href="#DejaVuSans-29" transform="translate(1505.558594 0)"/>
     </g>
    </g>
   </g>
   <g id="matplotlib.axis_2">
    <g id="ytick_1">
     <g id="line2d_7">
      <defs>
       <path id="mbe5db2c204" d="M 0 0 
L -3.5 0 
" style="stroke: #000000; stroke-width: 0.8"/>
      </defs>
      <g>
       <use xlink:href="#mbe5db2c204" x="58.579375" y="519.479219" style="stroke: #000000; stroke-width: 0.8"/>
      </g>
     </g>
     <g id="text_8">
      <!-- 0 -->
      <g transform="translate(45.216875 523.278437) scale(0.1 -0.1)">
       <use xlink:href="#DejaVuSans-30"/>
      </g>
     </g>
    </g>
    <g id="ytick_2">
     <g id="line2d_8">
      <g>
       <use xlink:href="#mbe5db2c204" x="58.579375" y="446.839219" style="stroke: #000000; stroke-width: 0.8"/>
      </g>
     </g>
     <g id="text_9">
      <!-- 20 -->
      <g transform="translate(38.854375 450.638437) scale(0.1 -0.1)">
       <use xlink:href="#DejaVuSans-32"/>
       <use xlink:href="#DejaVuSans-30" transform="translate(63.623047 0)"/>
      </g>
     </g>
    </g>
    <g id="ytick_3">
     <g id="line2d_9">
      <g>
       <use xlink:href="#mbe5db2c204" x="58.579375" y="374.199219" style="stroke: #000000; stroke-width: 0.8"/>
      </g>
     </g>
     <g id="text_10">
      <!-- 40 -->
      <g transform="translate(38.854375 377.998437) scale(0.1 -0.1)">
       <use xlink:href="#DejaVuSans-34"/>
       <use xlink:href="#DejaVuSans-30" transform="translate(63.623047 0)"/>
      </g>
     </g>
    </g>
    <g id="ytick_4">
     <g id="line2d_10">
      <g>
       <use xlink:href="#mbe5db2c204" x="58.579375" y="301.559219" style="stroke: #000000; stroke-width: 0.8"/>
      </g>
     </g>
     <g id="text_11">
      <!-- 60 -->
      <g transform="translate(38.854375 305.358437) scale(0.1 -0.1)">
       <use xlink:href="#DejaVuSans-36"/>
       <use xlink:href="#DejaVuSans-30" transform="translate(63.623047 0)"/>
      </g>
     </g>
    </g>
    <g id="ytick_5">
     <g id="line2d_11">
      <g>
       <use xlink:href="#mbe5db2c204" x="58.579375" y="228.919219" style="stroke: #000000; stroke-width: 0.8"/>
      </g>
     </g>
     <g id="text_12">
      <!-- 80 -->
      <g transform="translate(38.854375 232.718437) scale(0.1 -0.1)">
       <use xlink:href="#DejaVuSans-38"/>
       <use xlink:href="#DejaVuSans-30" transform="translate(63.623047 0)"/>
      </g>
     </g>
    </g>
    <g id="ytick_6">
     <g id="line2d_12">
      <g>
       <use xlink:href="#mbe5db2c204" x="58.579375" y="156.279219" style="stroke: #000000; stroke-width: 0.8"/>
      </g>
     </g>
     <g id="text_13">
      <!-- 100 -->
      <g transform="translate(32.491875 160.078437) scale(0.1 -0.1)">
       <use xlink:href="#DejaVuSans-31"/>
       <use xlink:href="#DejaVuSans-30" transform="translate(63.623047 0)"/>
       <use xlink:href="#DejaVuSans-30" transform="translate(127.246094 0)"/>
      </g>
     </g>
    </g>
    <g id="ytick_7">
     <g id="line2d_13">
      <g>
       <use xlink:href="#mbe5db2c204" x="58.579375" y="83.639219" style="stroke: #000000; stroke-width: 0.8"/>
      </g>
     </g>
     <g id="text_14">
      <!-- 120 -->
      <g transform="translate(32.491875 87.438437) scale(0.1 -0.1)">
       <use xlink:href="#DejaVuSans-31"/>
       <use xlink:href="#DejaVuSans-32" transform="translate(63.623047 0)"/>
       <use xlink:href="#DejaVuSans-30" transform="translate(127.246094 0)"/>
      </g>
     </g>
    </g>
    <g id="ytick_8">
     <g id="line2d_14">
      <g>
       <use xlink:href="#mbe5db2c204" x="58.579375" y="10.999219" style="stroke: #000000; stroke-width: 0.8"/>
      </g>
     </g>
     <g id="text_15">
      <!-- 140 -->
      <g transform="translate(32.491875 14.798437) scale(0.1 -0.1)">
       <use xlink:href="#DejaVuSans-31"/>
       <use xlink:href="#DejaVuSans-34" transform="translate(63.623047 0)"/>
       <use xlink:href="#DejaVuSans-30" transform="translate(127.246094 0)"/>
      </g>
     </g>
    </g>
    <g id="text_16">
     <!-- ATAC-seq Integral Signal -->
     <g transform="translate(23.916563 399.623125) rotate(-90) scale(0.22 -0.22)">
      <defs>
       <path id="DejaVuSans-41" d="M 2188 4044 
L 1331 1722 
L 3047 1722 
L 2188 4044 
z
M 1831 4666 
L 2547 4666 
L 4325 0 
L 3669 0 
L 3244 1197 
L 1141 1197 
L 716 0 
L 50 0 
L 1831 4666 
z
" transform="scale(0.015625)"/>
       <path id="DejaVuSans-54" d="M -19 4666 
L 3928 4666 
L 3928 4134 
L 2272 4134 
L 2272 0 
L 1638 0 
L 1638 4134 
L -19 4134 
L -19 4666 
z
" transform="scale(0.015625)"/>
       <path id="DejaVuSans-43" d="M 4122 4306 
L 4122 3641 
Q 3803 3938 3442 4084 
Q 3081 4231 2675 4231 
Q 1875 4231 1450 3742 
Q 1025 3253 1025 2328 
Q 1025 1406 1450 917 
Q 1875 428 2675 428 
Q 3081 428 3442 575 
Q 3803 722 4122 1019 
L 4122 359 
Q 3791 134 3420 21 
Q 3050 -91 2638 -91 
Q 1578 -91 968 557 
Q 359 1206 359 2328 
Q 359 3453 968 4101 
Q 1578 4750 2638 4750 
Q 3056 4750 3426 4639 
Q 3797 4528 4122 4306 
z
" transform="scale(0.015625)"/>
       <path id="DejaVuSans-2d" d="M 313 2009 
L 1997 2009 
L 1997 1497 
L 313 1497 
L 313 2009 
z
" transform="scale(0.015625)"/>
       <path id="DejaVuSans-71" d="M 947 1747 
Q 947 1113 1208 752 
Q 1469 391 1925 391 
Q 2381 391 2643 752 
Q 2906 1113 2906 1747 
Q 2906 2381 2643 2742 
Q 2381 3103 1925 3103 
Q 1469 3103 1208 2742 
Q 947 2381 947 1747 
z
M 2906 525 
Q 2725 213 2448 61 
Q 2172 -91 1784 -91 
Q 1150 -91 751 415 
Q 353 922 353 1747 
Q 353 2572 751 3078 
Q 1150 3584 1784 3584 
Q 2172 3584 2448 3432 
Q 2725 3281 2906 2969 
L 2906 3500 
L 3481 3500 
L 3481 -1331 
L 2906 -1331 
L 2906 525 
z
" transform="scale(0.015625)"/>
       <path id="DejaVuSans-49" d="M 628 4666 
L 1259 4666 
L 1259 0 
L 628 0 
L 628 4666 
z
" transform="scale(0.015625)"/>
       <path id="DejaVuSans-67" d="M 2906 1791 
Q 2906 2416 2648 2759 
Q 2391 3103 1925 3103 
Q 1463 3103 1205 2759 
Q 947 2416 947 1791 
Q 947 1169 1205 825 
Q 1463 481 1925 481 
Q 2391 481 2648 825 
Q 2906 1169 2906 1791 
z
M 3481 434 
Q 3481 -459 3084 -895 
Q 2688 -1331 1869 -1331 
Q 1566 -1331 1297 -1286 
Q 1028 -1241 775 -1147 
L 775 -588 
Q 1028 -725 1275 -790 
Q 1522 -856 1778 -856 
Q 2344 -856 2625 -561 
Q 2906 -266 2906 331 
L 2906 616 
Q 2728 306 2450 153 
Q 2172 0 1784 0 
Q 1141 0 747 490 
Q 353 981 353 1791 
Q 353 2603 747 3093 
Q 1141 3584 1784 3584 
Q 2172 3584 2450 3431 
Q 2728 3278 2906 2969 
L 2906 3500 
L 3481 3500 
L 3481 434 
z
" transform="scale(0.015625)"/>
       <path id="DejaVuSans-6c" d="M 603 4863 
L 1178 4863 
L 1178 0 
L 603 0 
L 603 4863 
z
" transform="scale(0.015625)"/>
       <path id="DejaVuSans-53" d="M 3425 4513 
L 3425 3897 
Q 3066 4069 2747 4153 
Q 2428 4238 2131 4238 
Q 1616 4238 1336 4038 
Q 1056 3838 1056 3469 
Q 1056 3159 1242 3001 
Q 1428 2844 1947 2747 
L 2328 2669 
Q 3034 2534 3370 2195 
Q 3706 1856 3706 1288 
Q 3706 609 3251 259 
Q 2797 -91 1919 -91 
Q 1588 -91 1214 -16 
Q 841 59 441 206 
L 441 856 
Q 825 641 1194 531 
Q 1563 422 1919 422 
Q 2459 422 2753 634 
Q 3047 847 3047 1241 
Q 3047 1584 2836 1778 
Q 2625 1972 2144 2069 
L 1759 2144 
Q 1053 2284 737 2584 
Q 422 2884 422 3419 
Q 422 4038 858 4394 
Q 1294 4750 2059 4750 
Q 2388 4750 2728 4690 
Q 3069 4631 3425 4513 
z
" transform="scale(0.015625)"/>
      </defs>
      <use xlink:href="#DejaVuSans-41"/>
      <use xlink:href="#DejaVuSans-54" transform="translate(60.658203 0)"/>
      <use xlink:href="#DejaVuSans-41" transform="translate(113.992188 0)"/>
      <use xlink:href="#DejaVuSans-43" transform="translate(180.650391 0)"/>
      <use xlink:href="#DejaVuSans-2d" transform="translate(250.474609 0)"/>
      <use xlink:href="#DejaVuSans-73" transform="translate(286.558594 0)"/>
      <use xlink:href="#DejaVuSans-65" transform="translate(338.658203 0)"/>
      <use xlink:href="#DejaVuSans-71" transform="translate(400.181641 0)"/>
      <use xlink:href="#DejaVuSans-20" transform="translate(463.658203 0)"/>
      <use xlink:href="#DejaVuSans-49" transform="translate(495.445312 0)"/>
      <use xlink:href="#DejaVuSans-6e" transform="translate(524.9375 0)"/>
      <use xlink:href="#DejaVuSans-74" transform="translate(588.316406 0)"/>
      <use xlink:href="#DejaVuSans-65" transform="translate(627.525391 0)"/>
      <use xlink:href="#DejaVuSans-67" transform="translate(689.048828 0)"/>
      <use xlink:href="#DejaVuSans-72" transform="translate(752.525391 0)"/>
      <use xlink:href="#DejaVuSans-61" transform="translate(793.638672 0)"/>
      <use xlink:href="#DejaVuSans-6c" transform="translate(854.917969 0)"/>
      <use xlink:href="#DejaVuSans-20" transform="translate(882.701172 0)"/>
      <use xlink:href="#DejaVuSans-53" transform="translate(914.488281 0)"/>
      <use xlink:href="#DejaVuSans-69" transform="translate(977.964844 0)"/>
      <use xlink:href="#DejaVuSans-67" transform="translate(1005.748047 0)"/>
      <use xlink:href="#DejaVuSans-6e" transform="translate(1069.224609 0)"/>
      <use xlink:href="#DejaVuSans-61" transform="translate(1132.603516 0)"/>
      <use xlink:href="#DejaVuSans-6c" transform="translate(1193.882812 0)"/>
     </g>
    </g>
   </g>
   <g id="line2d_15">
    <path d="M 176.675769 315.237989 
L 676.411582 403.547074 
L 676.411582 403.547074 
" clip-path="url(#pfa0862e775)" style="fill: none; stroke-dasharray: 10.36,4.48; stroke-dashoffset: 0; stroke: #ff0000; stroke-width: 2.8"/>
   </g>
   <g id="line2d_16">
    <path d="M 176.675769 401.009763 
L 385.941146 261.196201 
L 385.941146 261.196201 
" clip-path="url(#pfa0862e775)" style="fill: none; stroke-dasharray: 9.25,4; stroke-dashoffset: 0; stroke: #000000; stroke-width: 2.5"/>
   </g>
   <g id="patch_3">
    <path d="M 58.579375 519.479219 
L 58.579375 10.999219 
" style="fill: none; stroke: #000000; stroke-width: 0.8; stroke-linejoin: miter; stroke-linecap: square"/>
   </g>
   <g id="patch_4">
    <path d="M 778.109375 519.479219 
L 778.109375 10.999219 
" style="fill: none; stroke: #000000; stroke-width: 0.8; stroke-linejoin: miter; stroke-linecap: square"/>
   </g>
   <g id="patch_5">
    <path d="M 58.579375 519.479219 
L 778.109375 519.479219 
" style="fill: none; stroke: #000000; stroke-width: 0.8; stroke-linejoin: miter; stroke-linecap: square"/>
   </g>
   <g id="patch_6">
    <path d="M 58.579375 10.999219 
L 778.109375 10.999219 
" style="fill: none; stroke: #000000; stroke-width: 0.8; stroke-linejoin: miter; stroke-linecap: square"/>
   </g>
   <g id="LineCollection_1">
    <path d="M 280.972261 383.100185 
L 490.910031 383.100185 
" clip-path="url(#pfa0862e775)" style="fill: none; stroke: #702b24; stroke-opacity: 0.95; stroke-width: 1.5"/>
   </g>
   <g id="LineCollection_2">
    <path d="M 385.941146 389.919136 
L 385.941146 376.281233 
" clip-path="url(#pfa0862e775)" style="fill: none; stroke: #702b24; stroke-opacity: 0.95; stroke-width: 1.5"/>
   </g>
   <g id="line2d_17">
    <defs>
     <path id="m8fb266c264" d="M 0 4 
L 0 -4 
" style="stroke: #702b24; stroke-opacity: 0.95; stroke-width: 1.8"/>
    </defs>
    <g clip-path="url(#pfa0862e775)">
     <use xlink:href="#m8fb266c264" x="280.972261" y="383.100185" style="fill: #702b24; fill-opacity: 0.95; stroke: #702b24; stroke-opacity: 0.95; stroke-width: 1.8"/>
    </g>
   </g>
   <g id="line2d_18">
    <g clip-path="url(#pfa0862e775)">
     <use xlink:href="#m8fb266c264" x="490.910031" y="383.100185" style="fill: #702b24; fill-opacity: 0.95; stroke: #702b24; stroke-opacity: 0.95; stroke-width: 1.8"/>
    </g>
   </g>
   <g id="line2d_19">
    <defs>
     <path id="m428685b69a" d="M 4 0 
L -4 -0 
" style="stroke: #702b24; stroke-opacity: 0.95; stroke-width: 1.8"/>
    </defs>
    <g clip-path="url(#pfa0862e775)">
     <use xlink:href="#m428685b69a" x="385.941146" y="389.919136" style="fill: #702b24; fill-opacity: 0.95; stroke: #702b24; stroke-opacity: 0.95; stroke-width: 1.8"/>
    </g>
   </g>
   <g id="line2d_20">
    <g clip-path="url(#pfa0862e775)">
     <use xlink:href="#m428685b69a" x="385.941146" y="376.281233" style="fill: #702b24; fill-opacity: 0.95; stroke: #702b24; stroke-opacity: 0.95; stroke-width: 1.8"/>
    </g>
   </g>
   <g id="LineCollection_3">
    <path d="M 162.574112 365.384888 
L 383.787657 365.384888 
" clip-path="url(#pfa0862e775)" style="fill: none; stroke: #e35c0a; stroke-opacity: 0.95; stroke-width: 1.5"/>
   </g>
   <g id="LineCollection_4">
    <path d="M 273.180884 373.089605 
L 273.180884 357.680171 
" clip-path="url(#pfa0862e775)" style="fill: none; stroke: #e35c0a; stroke-opacity: 0.95; stroke-width: 1.5"/>
   </g>
   <g id="line2d_21">
    <defs>
     <path id="mc2e866943e" d="M 0 4 
L 0 -4 
" style="stroke: #e35c0a; stroke-opacity: 0.95; stroke-width: 1.8"/>
    </defs>
    <g clip-path="url(#pfa0862e775)">
     <use xlink:href="#mc2e866943e" x="162.574112" y="365.384888" style="fill: #e35c0a; fill-opacity: 0.95; stroke: #e35c0a; stroke-opacity: 0.95; stroke-width: 1.8"/>
    </g>
   </g>
   <g id="line2d_22">
    <g clip-path="url(#pfa0862e775)">
     <use xlink:href="#mc2e866943e" x="383.787657" y="365.384888" style="fill: #e35c0a; fill-opacity: 0.95; stroke: #e35c0a; stroke-opacity: 0.95; stroke-width: 1.8"/>
    </g>
   </g>
   <g id="line2d_23">
    <defs>
     <path id="mc92ce926e6" d="M 4 0 
L -4 -0 
" style="stroke: #e35c0a; stroke-opacity: 0.95; stroke-width: 1.8"/>
    </defs>
    <g clip-path="url(#pfa0862e775)">
     <use xlink:href="#mc92ce926e6" x="273.180884" y="373.089605" style="fill: #e35c0a; fill-opacity: 0.95; stroke: #e35c0a; stroke-opacity: 0.95; stroke-width: 1.8"/>
    </g>
   </g>
   <g id="line2d_24">
    <g clip-path="url(#pfa0862e775)">
     <use xlink:href="#mc92ce926e6" x="273.180884" y="357.680171" style="fill: #e35c0a; fill-opacity: 0.95; stroke: #e35c0a; stroke-opacity: 0.95; stroke-width: 1.8"/>
    </g>
   </g>
   <g id="LineCollection_5">
    <path d="M 258.201201 372.806862 
L 382.428527 372.806862 
" clip-path="url(#pfa0862e775)" style="fill: none; stroke: #e61a1a; stroke-opacity: 0.95; stroke-width: 1.5"/>
   </g>
   <g id="LineCollection_6">
    <path d="M 320.314864 380.14048 
L 320.314864 365.473245 
" clip-path="url(#pfa0862e775)" style="fill: none; stroke: #e61a1a; stroke-opacity: 0.95; stroke-width: 1.5"/>
   </g>
   <g id="line2d_25">
    <defs>
     <path id="m20618c4422" d="M 0 4 
L 0 -4 
" style="stroke: #e61a1a; stroke-opacity: 0.95; stroke-width: 1.8"/>
    </defs>
    <g clip-path="url(#pfa0862e775)">
     <use xlink:href="#m20618c4422" x="258.201201" y="372.806862" style="fill: #e61a1a; fill-opacity: 0.95; stroke: #e61a1a; stroke-opacity: 0.95; stroke-width: 1.8"/>
    </g>
   </g>
   <g id="line2d_26">
    <g clip-path="url(#pfa0862e775)">
     <use xlink:href="#m20618c4422" x="382.428527" y="372.806862" style="fill: #e61a1a; fill-opacity: 0.95; stroke: #e61a1a; stroke-opacity: 0.95; stroke-width: 1.8"/>
    </g>
   </g>
   <g id="line2d_27">
    <defs>
     <path id="m537f79de02" d="M 4 0 
L -4 -0 
" style="stroke: #e61a1a; stroke-opacity: 0.95; stroke-width: 1.8"/>
    </defs>
    <g clip-path="url(#pfa0862e775)">
     <use xlink:href="#m537f79de02" x="320.314864" y="380.14048" style="fill: #e61a1a; fill-opacity: 0.95; stroke: #e61a1a; stroke-opacity: 0.95; stroke-width: 1.8"/>
    </g>
   </g>
   <g id="line2d_28">
    <g clip-path="url(#pfa0862e775)">
     <use xlink:href="#m537f79de02" x="320.314864" y="365.473245" style="fill: #e61a1a; fill-opacity: 0.95; stroke: #e61a1a; stroke-opacity: 0.95; stroke-width: 1.8"/>
    </g>
   </g>
   <g id="LineCollection_7">
    <path d="M 580.900882 457.712386 
L 690.304298 457.712386 
" clip-path="url(#pfa0862e775)" style="fill: none; stroke: #0066cc; stroke-opacity: 0.95; stroke-width: 1.5"/>
   </g>
   <g id="LineCollection_8">
    <path d="M 635.60259 460.800727 
L 635.60259 454.624044 
" clip-path="url(#pfa0862e775)" style="fill: none; stroke: #0066cc; stroke-opacity: 0.95; stroke-width: 1.5"/>
   </g>
   <g id="line2d_29">
    <defs>
     <path id="ma5f8e52d4c" d="M 0 4 
L 0 -4 
" style="stroke: #0066cc; stroke-opacity: 0.95; stroke-width: 1.8"/>
    </defs>
    <g clip-path="url(#pfa0862e775)">
     <use xlink:href="#ma5f8e52d4c" x="580.900882" y="457.712386" style="fill: #0066cc; fill-opacity: 0.95; stroke: #0066cc; stroke-opacity: 0.95; stroke-width: 1.8"/>
    </g>
   </g>
   <g id="line2d_30">
    <g clip-path="url(#pfa0862e775)">
     <use xlink:href="#ma5f8e52d4c" x="690.304298" y="457.712386" style="fill: #0066cc; fill-opacity: 0.95; stroke: #0066cc; stroke-opacity: 0.95; stroke-width: 1.8"/>
    </g>
   </g>
   <g id="line2d_31">
    <defs>
     <path id="m84046ca5b1" d="M 4 0 
L -4 -0 
" style="stroke: #0066cc; stroke-opacity: 0.95; stroke-width: 1.8"/>
    </defs>
    <g clip-path="url(#pfa0862e775)">
     <use xlink:href="#m84046ca5b1" x="635.60259" y="460.800727" style="fill: #0066cc; fill-opacity: 0.95; stroke: #0066cc; stroke-opacity: 0.95; stroke-width: 1.8"/>
    </g>
   </g>
   <g id="line2d_32">
    <g clip-path="url(#pfa0862e775)">
     <use xlink:href="#m84046ca5b1" x="635.60259" y="454.624044" style="fill: #0066cc; fill-opacity: 0.95; stroke: #0066cc; stroke-opacity: 0.95; stroke-width: 1.8"/>
    </g>
   </g>
   <g id="LineCollection_9">
    <path d="M 295.770668 142.257729 
L 469.183532 142.257729 
" clip-path="url(#pfa0862e775)" style="fill: none; stroke: #702b24; stroke-opacity: 0.95; stroke-width: 1.5"/>
   </g>
   <g id="LineCollection_10">
    <path d="M 382.4771 161.118803 
L 382.4771 123.396655 
" clip-path="url(#pfa0862e775)" style="fill: none; stroke: #702b24; stroke-opacity: 0.95; stroke-width: 1.5"/>
   </g>
   <g id="line2d_33">
    <g clip-path="url(#pfa0862e775)">
     <use xlink:href="#m8fb266c264" x="295.770668" y="142.257729" style="fill: #702b24; fill-opacity: 0.95; stroke: #702b24; stroke-opacity: 0.95; stroke-width: 1.8"/>
    </g>
   </g>
   <g id="line2d_34">
    <g clip-path="url(#pfa0862e775)">
     <use xlink:href="#m8fb266c264" x="469.183532" y="142.257729" style="fill: #702b24; fill-opacity: 0.95; stroke: #702b24; stroke-opacity: 0.95; stroke-width: 1.8"/>
    </g>
   </g>
   <g id="line2d_35">
    <g clip-path="url(#pfa0862e775)">
     <use xlink:href="#m428685b69a" x="382.4771" y="161.118803" style="fill: #702b24; fill-opacity: 0.95; stroke: #702b24; stroke-opacity: 0.95; stroke-width: 1.8"/>
    </g>
   </g>
   <g id="line2d_36">
    <g clip-path="url(#pfa0862e775)">
     <use xlink:href="#m428685b69a" x="382.4771" y="123.396655" style="fill: #702b24; fill-opacity: 0.95; stroke: #702b24; stroke-opacity: 0.95; stroke-width: 1.8"/>
    </g>
   </g>
   <g id="LineCollection_11">
    <path d="M 179.530541 300.492842 
L 339.531655 300.492842 
" clip-path="url(#pfa0862e775)" style="fill: none; stroke: #e35c0a; stroke-opacity: 0.95; stroke-width: 1.5"/>
   </g>
   <g id="LineCollection_12">
    <path d="M 259.531098 311.442162 
L 259.531098 289.543523 
" clip-path="url(#pfa0862e775)" style="fill: none; stroke: #e35c0a; stroke-opacity: 0.95; stroke-width: 1.5"/>
   </g>
   <g id="line2d_37">
    <g clip-path="url(#pfa0862e775)">
     <use xlink:href="#mc2e866943e" x="179.530541" y="300.492842" style="fill: #e35c0a; fill-opacity: 0.95; stroke: #e35c0a; stroke-opacity: 0.95; stroke-width: 1.8"/>
    </g>
   </g>
   <g id="line2d_38">
    <g clip-path="url(#pfa0862e775)">
     <use xlink:href="#mc2e866943e" x="339.531655" y="300.492842" style="fill: #e35c0a; fill-opacity: 0.95; stroke: #e35c0a; stroke-opacity: 0.95; stroke-width: 1.8"/>
    </g>
   </g>
   <g id="line2d_39">
    <g clip-path="url(#pfa0862e775)">
     <use xlink:href="#mc92ce926e6" x="259.531098" y="311.442162" style="fill: #e35c0a; fill-opacity: 0.95; stroke: #e35c0a; stroke-opacity: 0.95; stroke-width: 1.8"/>
    </g>
   </g>
   <g id="line2d_40">
    <g clip-path="url(#pfa0862e775)">
     <use xlink:href="#mc92ce926e6" x="259.531098" y="289.543523" style="fill: #e35c0a; fill-opacity: 0.95; stroke: #e35c0a; stroke-opacity: 0.95; stroke-width: 1.8"/>
    </g>
   </g>
   <g id="LineCollection_13">
    <path d="M 231.300647 282.12057 
L 414.095829 282.12057 
" clip-path="url(#pfa0862e775)" style="fill: none; stroke: #e61a1a; stroke-opacity: 0.95; stroke-width: 1.5"/>
   </g>
   <g id="LineCollection_14">
    <path d="M 322.698238 293.988503 
L 322.698238 270.252637 
" clip-path="url(#pfa0862e775)" style="fill: none; stroke: #e61a1a; stroke-opacity: 0.95; stroke-width: 1.5"/>
   </g>
   <g id="line2d_41">
    <g clip-path="url(#pfa0862e775)">
     <use xlink:href="#m20618c4422" x="231.300647" y="282.12057" style="fill: #e61a1a; fill-opacity: 0.95; stroke: #e61a1a; stroke-opacity: 0.95; stroke-width: 1.8"/>
    </g>
   </g>
   <g id="line2d_42">
    <g clip-path="url(#pfa0862e775)">
     <use xlink:href="#m20618c4422" x="414.095829" y="282.12057" style="fill: #e61a1a; fill-opacity: 0.95; stroke: #e61a1a; stroke-opacity: 0.95; stroke-width: 1.8"/>
    </g>
   </g>
   <g id="line2d_43">
    <g clip-path="url(#pfa0862e775)">
     <use xlink:href="#m537f79de02" x="322.698238" y="293.988503" style="fill: #e61a1a; fill-opacity: 0.95; stroke: #e61a1a; stroke-opacity: 0.95; stroke-width: 1.8"/>
    </g>
   </g>
   <g id="line2d_44">
    <g clip-path="url(#pfa0862e775)">
     <use xlink:href="#m537f79de02" x="322.698238" y="270.252637" style="fill: #e61a1a; fill-opacity: 0.95; stroke: #e61a1a; stroke-opacity: 0.95; stroke-width: 1.8"/>
    </g>
   </g>
   <g id="LineCollection_15">
    <path d="M 598.225178 404.870107 
L 754.597986 404.870107 
" clip-path="url(#pfa0862e775)" style="fill: none; stroke: #0066cc; stroke-opacity: 0.95; stroke-width: 1.5"/>
   </g>
   <g id="LineCollection_16">
    <path d="M 676.411582 410.600563 
L 676.411582 399.139651 
" clip-path="url(#pfa0862e775)" style="fill: none; stroke: #0066cc; stroke-opacity: 0.95; stroke-width: 1.5"/>
   </g>
   <g id="line2d_45">
    <g clip-path="url(#pfa0862e775)">
     <use xlink:href="#ma5f8e52d4c" x="598.225178" y="404.870107" style="fill: #0066cc; fill-opacity: 0.95; stroke: #0066cc; stroke-opacity: 0.95; stroke-width: 1.8"/>
    </g>
   </g>
   <g id="line2d_46">
    <g clip-path="url(#pfa0862e775)">
     <use xlink:href="#ma5f8e52d4c" x="754.597986" y="404.870107" style="fill: #0066cc; fill-opacity: 0.95; stroke: #0066cc; stroke-opacity: 0.95; stroke-width: 1.8"/>
    </g>
   </g>
   <g id="line2d_47">
    <g clip-path="url(#pfa0862e775)">
     <use xlink:href="#m84046ca5b1" x="676.411582" y="410.600563" style="fill: #0066cc; fill-opacity: 0.95; stroke: #0066cc; stroke-opacity: 0.95; stroke-width: 1.8"/>
    </g>
   </g>
   <g id="line2d_48">
    <g clip-path="url(#pfa0862e775)">
     <use xlink:href="#m84046ca5b1" x="676.411582" y="399.139651" style="fill: #0066cc; fill-opacity: 0.95; stroke: #0066cc; stroke-opacity: 0.95; stroke-width: 1.8"/>
    </g>
   </g>
   <g id="LineCollection_17">
    <path d="M 84.982702 401.779054 
L 268.368836 401.779054 
" clip-path="url(#pfa0862e775)" style="fill: none; stroke: #702b24; stroke-opacity: 0.95; stroke-width: 1.5"/>
   </g>
   <g id="LineCollection_18">
    <path d="M 176.675769 407.664062 
L 176.675769 395.894046 
" clip-path="url(#pfa0862e775)" style="fill: none; stroke: #702b24; stroke-opacity: 0.95; stroke-width: 1.5"/>
   </g>
   <g id="line2d_49">
    <g clip-path="url(#pfa0862e775)">
     <use xlink:href="#m8fb266c264" x="84.982702" y="401.779054" style="fill: #702b24; fill-opacity: 0.95; stroke: #702b24; stroke-opacity: 0.95; stroke-width: 1.8"/>
    </g>
   </g>
   <g id="line2d_50">
    <g clip-path="url(#pfa0862e775)">
     <use xlink:href="#m8fb266c264" x="268.368836" y="401.779054" style="fill: #702b24; fill-opacity: 0.95; stroke: #702b24; stroke-opacity: 0.95; stroke-width: 1.8"/>
    </g>
   </g>
   <g id="line2d_51">
    <g clip-path="url(#pfa0862e775)">
     <use xlink:href="#m428685b69a" x="176.675769" y="407.664062" style="fill: #702b24; fill-opacity: 0.95; stroke: #702b24; stroke-opacity: 0.95; stroke-width: 1.8"/>
    </g>
   </g>
   <g id="line2d_52">
    <g clip-path="url(#pfa0862e775)">
     <use xlink:href="#m428685b69a" x="176.675769" y="395.894046" style="fill: #702b24; fill-opacity: 0.95; stroke: #702b24; stroke-opacity: 0.95; stroke-width: 1.8"/>
    </g>
   </g>
   <g id="LineCollection_19">
    <path d="M 163.81232 398.266705 
L 283.63143 398.266705 
" clip-path="url(#pfa0862e775)" style="fill: none; stroke: #e35c0a; stroke-opacity: 0.95; stroke-width: 1.5"/>
   </g>
   <g id="LineCollection_20">
    <path d="M 223.721875 404.327331 
L 223.721875 392.20608 
" clip-path="url(#pfa0862e775)" style="fill: none; stroke: #e35c0a; stroke-opacity: 0.95; stroke-width: 1.5"/>
   </g>
   <g id="line2d_53">
    <g clip-path="url(#pfa0862e775)">
     <use xlink:href="#mc2e866943e" x="163.81232" y="398.266705" style="fill: #e35c0a; fill-opacity: 0.95; stroke: #e35c0a; stroke-opacity: 0.95; stroke-width: 1.8"/>
    </g>
   </g>
   <g id="line2d_54">
    <g clip-path="url(#pfa0862e775)">
     <use xlink:href="#mc2e866943e" x="283.63143" y="398.266705" style="fill: #e35c0a; fill-opacity: 0.95; stroke: #e35c0a; stroke-opacity: 0.95; stroke-width: 1.8"/>
    </g>
   </g>
   <g id="line2d_55">
    <g clip-path="url(#pfa0862e775)">
     <use xlink:href="#mc92ce926e6" x="223.721875" y="404.327331" style="fill: #e35c0a; fill-opacity: 0.95; stroke: #e35c0a; stroke-opacity: 0.95; stroke-width: 1.8"/>
    </g>
   </g>
   <g id="line2d_56">
    <g clip-path="url(#pfa0862e775)">
     <use xlink:href="#mc92ce926e6" x="223.721875" y="392.20608" style="fill: #e35c0a; fill-opacity: 0.95; stroke: #e35c0a; stroke-opacity: 0.95; stroke-width: 1.8"/>
    </g>
   </g>
   <g id="LineCollection_21">
    <path d="M 232.566359 256.835757 
L 372.050163 256.835757 
" clip-path="url(#pfa0862e775)" style="fill: none; stroke: #e61a1a; stroke-opacity: 0.95; stroke-width: 1.5"/>
   </g>
   <g id="LineCollection_22">
    <path d="M 302.308261 269.967931 
L 302.308261 243.703584 
" clip-path="url(#pfa0862e775)" style="fill: none; stroke: #e61a1a; stroke-opacity: 0.95; stroke-width: 1.5"/>
   </g>
   <g id="line2d_57">
    <g clip-path="url(#pfa0862e775)">
     <use xlink:href="#m20618c4422" x="232.566359" y="256.835757" style="fill: #e61a1a; fill-opacity: 0.95; stroke: #e61a1a; stroke-opacity: 0.95; stroke-width: 1.8"/>
    </g>
   </g>
   <g id="line2d_58">
    <g clip-path="url(#pfa0862e775)">
     <use xlink:href="#m20618c4422" x="372.050163" y="256.835757" style="fill: #e61a1a; fill-opacity: 0.95; stroke: #e61a1a; stroke-opacity: 0.95; stroke-width: 1.8"/>
    </g>
   </g>
   <g id="line2d_59">
    <g clip-path="url(#pfa0862e775)">
     <use xlink:href="#m537f79de02" x="302.308261" y="269.967931" style="fill: #e61a1a; fill-opacity: 0.95; stroke: #e61a1a; stroke-opacity: 0.95; stroke-width: 1.8"/>
    </g>
   </g>
   <g id="line2d_60">
    <g clip-path="url(#pfa0862e775)">
     <use xlink:href="#m537f79de02" x="302.308261" y="243.703584" style="fill: #e61a1a; fill-opacity: 0.95; stroke: #e61a1a; stroke-opacity: 0.95; stroke-width: 1.8"/>
    </g>
   </g>
   <g id="LineCollection_23">
    <path d="M 416.139312 426.950346 
L 543.532481 426.950346 
" clip-path="url(#pfa0862e775)" style="fill: none; stroke: #0066cc; stroke-opacity: 0.95; stroke-width: 1.5"/>
   </g>
   <g id="LineCollection_24">
    <path d="M 479.835896 431.57679 
L 479.835896 422.323902 
" clip-path="url(#pfa0862e775)" style="fill: none; stroke: #0066cc; stroke-opacity: 0.95; stroke-width: 1.5"/>
   </g>
   <g id="line2d_61">
    <g clip-path="url(#pfa0862e775)">
     <use xlink:href="#ma5f8e52d4c" x="416.139312" y="426.950346" style="fill: #0066cc; fill-opacity: 0.95; stroke: #0066cc; stroke-opacity: 0.95; stroke-width: 1.8"/>
    </g>
   </g>
   <g id="line2d_62">
    <g clip-path="url(#pfa0862e775)">
     <use xlink:href="#ma5f8e52d4c" x="543.532481" y="426.950346" style="fill: #0066cc; fill-opacity: 0.95; stroke: #0066cc; stroke-opacity: 0.95; stroke-width: 1.8"/>
    </g>
   </g>
   <g id="line2d_63">
    <g clip-path="url(#pfa0862e775)">
     <use xlink:href="#m84046ca5b1" x="479.835896" y="431.57679" style="fill: #0066cc; fill-opacity: 0.95; stroke: #0066cc; stroke-opacity: 0.95; stroke-width: 1.8"/>
    </g>
   </g>
   <g id="line2d_64">
    <g clip-path="url(#pfa0862e775)">
     <use xlink:href="#m84046ca5b1" x="479.835896" y="422.323902" style="fill: #0066cc; fill-opacity: 0.95; stroke: #0066cc; stroke-opacity: 0.95; stroke-width: 1.8"/>
    </g>
   </g>
   <g id="legend_1">
    <g id="patch_7">
     <path d="M 539.86875 145.670469 
L 768.309375 145.670469 
Q 771.109375 145.670469 771.109375 142.870469 
L 771.109375 20.799219 
Q 771.109375 17.999219 768.309375 17.999219 
L 539.86875 17.999219 
Q 537.06875 17.999219 537.06875 20.799219 
L 537.06875 142.870469 
Q 537.06875 145.670469 539.86875 145.670469 
z
" style="fill: #ffffff; opacity: 0.8; stroke: #cccccc; stroke-linejoin: miter"/>
    </g>
    <g id="line2d_65">
     <path d="M 542.66875 29.337031 
L 556.66875 29.337031 
L 570.66875 29.337031 
" style="fill: none; stroke: #ffffff; stroke-width: 1.5; stroke-linecap: square"/>
     <defs>
      <path id="m4f4bfc34aa" d="M 0 5 
C 1.326016 5 2.597899 4.473168 3.535534 3.535534 
C 4.473168 2.597899 5 1.326016 5 0 
C 5 -1.326016 4.473168 -2.597899 3.535534 -3.535534 
C 2.597899 -4.473168 1.326016 -5 0 -5 
C -1.326016 -5 -2.597899 -4.473168 -3.535534 -3.535534 
C -4.473168 -2.597899 -5 -1.326016 -5 0 
C -5 1.326016 -4.473168 2.597899 -3.535534 3.535534 
C -2.597899 4.473168 -1.326016 5 0 5 
z
" style="stroke: #ffffff"/>
     </defs>
     <g>
      <use xlink:href="#m4f4bfc34aa" x="556.66875" y="29.337031" style="fill: #0066cc; stroke: #ffffff"/>
     </g>
    </g>
    <g id="text_17">
     <!-- non KCs -->
     <g transform="translate(581.86875 34.237031) scale(0.14 -0.14)">
      <defs>
       <path id="DejaVuSans-6f" d="M 1959 3097 
Q 1497 3097 1228 2736 
Q 959 2375 959 1747 
Q 959 1119 1226 758 
Q 1494 397 1959 397 
Q 2419 397 2687 759 
Q 2956 1122 2956 1747 
Q 2956 2369 2687 2733 
Q 2419 3097 1959 3097 
z
M 1959 3584 
Q 2709 3584 3137 3096 
Q 3566 2609 3566 1747 
Q 3566 888 3137 398 
Q 2709 -91 1959 -91 
Q 1206 -91 779 398 
Q 353 888 353 1747 
Q 353 2609 779 3096 
Q 1206 3584 1959 3584 
z
" transform="scale(0.015625)"/>
       <path id="DejaVuSans-4b" d="M 628 4666 
L 1259 4666 
L 1259 2694 
L 3353 4666 
L 4166 4666 
L 1850 2491 
L 4331 0 
L 3500 0 
L 1259 2247 
L 1259 0 
L 628 0 
L 628 4666 
z
" transform="scale(0.015625)"/>
      </defs>
      <use xlink:href="#DejaVuSans-6e"/>
      <use xlink:href="#DejaVuSans-6f" transform="translate(63.378906 0)"/>
      <use xlink:href="#DejaVuSans-6e" transform="translate(124.560547 0)"/>
      <use xlink:href="#DejaVuSans-20" transform="translate(187.939453 0)"/>
      <use xlink:href="#DejaVuSans-4b" transform="translate(219.726562 0)"/>
      <use xlink:href="#DejaVuSans-43" transform="translate(279.802734 0)"/>
      <use xlink:href="#DejaVuSans-73" transform="translate(349.626953 0)"/>
     </g>
    </g>
    <g id="line2d_66">
     <path d="M 542.66875 49.973906 
L 556.66875 49.973906 
L 570.66875 49.973906 
" style="fill: none; stroke: #ffffff; stroke-width: 1.5; stroke-linecap: square"/>
     <defs>
      <path id="mc68854b1cb" d="M 0 5 
C 1.326016 5 2.597899 4.473168 3.535534 3.535534 
C 4.473168 2.597899 5 1.326016 5 0 
C 5 -1.326016 4.473168 -2.597899 3.535534 -3.535534 
C 2.597899 -4.473168 1.326016 -5 0 -5 
C -1.326016 -5 -2.597899 -4.473168 -3.535534 -3.535534 
C -4.473168 -2.597899 -5 -1.326016 -5 0 
C -5 1.326016 -4.473168 2.597899 -3.535534 3.535534 
C -2.597899 4.473168 -1.326016 5 0 5 
z
" style="stroke: #ffffff"/>
     </defs>
     <g>
      <use xlink:href="#mc68854b1cb" x="556.66875" y="49.973906" style="fill: #702b24; stroke: #ffffff"/>
     </g>
    </g>
    <g id="text_18">
     <!-- KCs αβ -->
     <g transform="translate(581.86875 54.873906) scale(0.14 -0.14)">
      <defs>
       <path id="DejaVuSans-3b1" d="M 2644 1628 
L 2506 2350 
Q 2366 3091 1809 3091 
Q 1391 3091 1200 2747 
Q 959 2316 959 1747 
Q 959 1059 1194 731 
Q 1431 397 1809 397 
Q 2228 397 2453 1063 
L 2644 1628 
z
M 2966 2584 
L 3275 3500 
L 3788 3500 
L 3147 1603 
L 3272 919 
Q 3300 766 3409 638 
Q 3538 488 3638 488 
L 3913 488 
L 3913 0 
L 3569 0 
Q 3275 0 3013 263 
Q 2884 394 2831 669 
Q 2688 322 2394 50 
Q 2256 -78 1809 -78 
Q 1075 -78 719 397 
Q 353 888 353 1747 
Q 353 2666 750 3097 
Q 1191 3578 1809 3578 
Q 2781 3578 2966 2584 
z
" transform="scale(0.015625)"/>
       <path id="DejaVuSans-3b2" d="M 1178 216 
L 1178 -1331 
L 600 -1331 
L 600 3478 
Q 600 4903 1931 4903 
Q 3288 4903 3288 3700 
Q 3288 2844 2750 2531 
Q 3625 2250 3625 1416 
Q 3625 -66 2119 -66 
Q 1456 -66 1178 216 
z
M 1178 966 
Q 1525 425 2141 425 
Q 3041 425 3041 1406 
Q 3041 2288 1591 2219 
L 1591 2750 
Q 2725 2750 2725 3750 
Q 2725 4434 1994 4434 
Q 1178 4434 1178 3459 
L 1178 966 
z
" transform="scale(0.015625)"/>
      </defs>
      <use xlink:href="#DejaVuSans-4b"/>
      <use xlink:href="#DejaVuSans-43" transform="translate(60.076172 0)"/>
      <use xlink:href="#DejaVuSans-73" transform="translate(129.900391 0)"/>
      <use xlink:href="#DejaVuSans-20" transform="translate(182 0)"/>
      <use xlink:href="#DejaVuSans-3b1" transform="translate(213.787109 0)"/>
      <use xlink:href="#DejaVuSans-3b2" transform="translate(279.705078 0)"/>
     </g>
    </g>
    <g id="line2d_67">
     <path d="M 542.66875 70.610781 
L 556.66875 70.610781 
L 570.66875 70.610781 
" style="fill: none; stroke: #ffffff; stroke-width: 1.5; stroke-linecap: square"/>
     <defs>
      <path id="mdd5b971ac6" d="M 0 5 
C 1.326016 5 2.597899 4.473168 3.535534 3.535534 
C 4.473168 2.597899 5 1.326016 5 0 
C 5 -1.326016 4.473168 -2.597899 3.535534 -3.535534 
C 2.597899 -4.473168 1.326016 -5 0 -5 
C -1.326016 -5 -2.597899 -4.473168 -3.535534 -3.535534 
C -4.473168 -2.597899 -5 -1.326016 -5 0 
C -5 1.326016 -4.473168 2.597899 -3.535534 3.535534 
C -2.597899 4.473168 -1.326016 5 0 5 
z
" style="stroke: #ffffff"/>
     </defs>
     <g>
      <use xlink:href="#mdd5b971ac6" x="556.66875" y="70.610781" style="fill: #e35c0a; stroke: #ffffff"/>
     </g>
    </g>
    <g id="text_19">
     <!-- KCs α'β' -->
     <g transform="translate(581.86875 75.510781) scale(0.14 -0.14)">
      <defs>
       <path id="DejaVuSans-27" d="M 1147 4666 
L 1147 2931 
L 616 2931 
L 616 4666 
L 1147 4666 
z
" transform="scale(0.015625)"/>
      </defs>
      <use xlink:href="#DejaVuSans-4b"/>
      <use xlink:href="#DejaVuSans-43" transform="translate(60.076172 0)"/>
      <use xlink:href="#DejaVuSans-73" transform="translate(129.900391 0)"/>
      <use xlink:href="#DejaVuSans-20" transform="translate(182 0)"/>
      <use xlink:href="#DejaVuSans-3b1" transform="translate(213.787109 0)"/>
      <use xlink:href="#DejaVuSans-27" transform="translate(279.705078 0)"/>
      <use xlink:href="#DejaVuSans-3b2" transform="translate(307.195312 0)"/>
      <use xlink:href="#DejaVuSans-27" transform="translate(371.013672 0)"/>
     </g>
    </g>
    <g id="line2d_68">
     <path d="M 542.66875 91.160156 
L 556.66875 91.160156 
L 570.66875 91.160156 
" style="fill: none; stroke: #ffffff; stroke-width: 1.5; stroke-linecap: square"/>
     <defs>
      <path id="mb3250d2f7d" d="M 0 5 
C 1.326016 5 2.597899 4.473168 3.535534 3.535534 
C 4.473168 2.597899 5 1.326016 5 0 
C 5 -1.326016 4.473168 -2.597899 3.535534 -3.535534 
C 2.597899 -4.473168 1.326016 -5 0 -5 
C -1.326016 -5 -2.597899 -4.473168 -3.535534 -3.535534 
C -4.473168 -2.597899 -5 -1.326016 -5 0 
C -5 1.326016 -4.473168 2.597899 -3.535534 3.535534 
C -2.597899 4.473168 -1.326016 5 0 5 
z
" style="stroke: #ffffff"/>
     </defs>
     <g>
      <use xlink:href="#mb3250d2f7d" x="556.66875" y="91.160156" style="fill: #e61a1a; stroke: #ffffff"/>
     </g>
    </g>
    <g id="text_20">
     <!-- KCs γ -->
     <g transform="translate(581.86875 96.060156) scale(0.14 -0.14)">
      <defs>
       <path id="DejaVuSans-3b3" d="M 1128 2950 
L 1894 788 
L 2988 3500 
L 3597 3500 
L 2181 0 
L 2181 -1331 
L 1606 -1331 
L 1606 0 
L 688 2613 
Q 550 3006 253 3006 
L 100 3006 
L 100 3500 
L 319 3500 
Q 934 3500 1128 2950 
z
" transform="scale(0.015625)"/>
      </defs>
      <use xlink:href="#DejaVuSans-4b"/>
      <use xlink:href="#DejaVuSans-43" transform="translate(60.076172 0)"/>
      <use xlink:href="#DejaVuSans-73" transform="translate(129.900391 0)"/>
      <use xlink:href="#DejaVuSans-20" transform="translate(182 0)"/>
      <use xlink:href="#DejaVuSans-3b3" transform="translate(213.787109 0)"/>
     </g>
    </g>
    <g id="line2d_69">
     <path d="M 542.66875 111.709531 
L 556.66875 111.709531 
L 570.66875 111.709531 
" style="fill: none; stroke-dasharray: 9.25,4; stroke-dashoffset: 0; stroke: #ff0000; stroke-width: 2.5"/>
    </g>
    <g id="text_21">
     <!-- Pearson All (r=-0.31) -->
     <g transform="translate(581.86875 116.609531) scale(0.14 -0.14)">
      <defs>
       <path id="DejaVuSans-3d" d="M 678 2906 
L 4684 2906 
L 4684 2381 
L 678 2381 
L 678 2906 
z
M 678 1631 
L 4684 1631 
L 4684 1100 
L 678 1100 
L 678 1631 
z
" transform="scale(0.015625)"/>
       <path id="DejaVuSans-33" d="M 2597 2516 
Q 3050 2419 3304 2112 
Q 3559 1806 3559 1356 
Q 3559 666 3084 287 
Q 2609 -91 1734 -91 
Q 1441 -91 1130 -33 
Q 819 25 488 141 
L 488 750 
Q 750 597 1062 519 
Q 1375 441 1716 441 
Q 2309 441 2620 675 
Q 2931 909 2931 1356 
Q 2931 1769 2642 2001 
Q 2353 2234 1838 2234 
L 1294 2234 
L 1294 2753 
L 1863 2753 
Q 2328 2753 2575 2939 
Q 2822 3125 2822 3475 
Q 2822 3834 2567 4026 
Q 2313 4219 1838 4219 
Q 1578 4219 1281 4162 
Q 984 4106 628 3988 
L 628 4550 
Q 988 4650 1302 4700 
Q 1616 4750 1894 4750 
Q 2613 4750 3031 4423 
Q 3450 4097 3450 3541 
Q 3450 3153 3228 2886 
Q 3006 2619 2597 2516 
z
" transform="scale(0.015625)"/>
      </defs>
      <use xlink:href="#DejaVuSans-50"/>
      <use xlink:href="#DejaVuSans-65" transform="translate(56.677734 0)"/>
      <use xlink:href="#DejaVuSans-61" transform="translate(118.201172 0)"/>
      <use xlink:href="#DejaVuSans-72" transform="translate(179.480469 0)"/>
      <use xlink:href="#DejaVuSans-73" transform="translate(220.59375 0)"/>
      <use xlink:href="#DejaVuSans-6f" transform="translate(272.693359 0)"/>
      <use xlink:href="#DejaVuSans-6e" transform="translate(333.875 0)"/>
      <use xlink:href="#DejaVuSans-20" transform="translate(397.253906 0)"/>
      <use xlink:href="#DejaVuSans-41" transform="translate(429.041016 0)"/>
      <use xlink:href="#DejaVuSans-6c" transform="translate(497.449219 0)"/>
      <use xlink:href="#DejaVuSans-6c" transform="translate(525.232422 0)"/>
      <use xlink:href="#DejaVuSans-20" transform="translate(553.015625 0)"/>
      <use xlink:href="#DejaVuSans-28" transform="translate(584.802734 0)"/>
      <use xlink:href="#DejaVuSans-72" transform="translate(623.816406 0)"/>
      <use xlink:href="#DejaVuSans-3d" transform="translate(664.929688 0)"/>
      <use xlink:href="#DejaVuSans-2d" transform="translate(748.71875 0)"/>
      <use xlink:href="#DejaVuSans-30" transform="translate(784.802734 0)"/>
      <use xlink:href="#DejaVuSans-2e" transform="translate(848.425781 0)"/>
      <use xlink:href="#DejaVuSans-33" transform="translate(880.212891 0)"/>
      <use xlink:href="#DejaVuSans-31" transform="translate(943.835938 0)"/>
      <use xlink:href="#DejaVuSans-29" transform="translate(1007.458984 0)"/>
     </g>
    </g>
    <g id="line2d_70">
     <path d="M 542.66875 132.258906 
L 556.66875 132.258906 
L 570.66875 132.258906 
" style="fill: none; stroke-dasharray: 9.25,4; stroke-dashoffset: 0; stroke: #000000; stroke-width: 2.5"/>
    </g>
    <g id="text_22">
     <!-- Pearson KCs only (r=0.54) -->
     <g transform="translate(581.86875 137.158906) scale(0.14 -0.14)">
      <defs>
       <path id="DejaVuSans-79" d="M 2059 -325 
Q 1816 -950 1584 -1140 
Q 1353 -1331 966 -1331 
L 506 -1331 
L 506 -850 
L 844 -850 
Q 1081 -850 1212 -737 
Q 1344 -625 1503 -206 
L 1606 56 
L 191 3500 
L 800 3500 
L 1894 763 
L 2988 3500 
L 3597 3500 
L 2059 -325 
z
" transform="scale(0.015625)"/>
       <path id="DejaVuSans-35" d="M 691 4666 
L 3169 4666 
L 3169 4134 
L 1269 4134 
L 1269 2991 
Q 1406 3038 1543 3061 
Q 1681 3084 1819 3084 
Q 2600 3084 3056 2656 
Q 3513 2228 3513 1497 
Q 3513 744 3044 326 
Q 2575 -91 1722 -91 
Q 1428 -91 1123 -41 
Q 819 9 494 109 
L 494 744 
Q 775 591 1075 516 
Q 1375 441 1709 441 
Q 2250 441 2565 725 
Q 2881 1009 2881 1497 
Q 2881 1984 2565 2268 
Q 2250 2553 1709 2553 
Q 1456 2553 1204 2497 
Q 953 2441 691 2322 
L 691 4666 
z
" transform="scale(0.015625)"/>
      </defs>
      <use xlink:href="#DejaVuSans-50"/>
      <use xlink:href="#DejaVuSans-65" transform="translate(56.677734 0)"/>
      <use xlink:href="#DejaVuSans-61" transform="translate(118.201172 0)"/>
      <use xlink:href="#DejaVuSans-72" transform="translate(179.480469 0)"/>
      <use xlink:href="#DejaVuSans-73" transform="translate(220.59375 0)"/>
      <use xlink:href="#DejaVuSans-6f" transform="translate(272.693359 0)"/>
      <use xlink:href="#DejaVuSans-6e" transform="translate(333.875 0)"/>
      <use xlink:href="#DejaVuSans-20" transform="translate(397.253906 0)"/>
      <use xlink:href="#DejaVuSans-4b" transform="translate(429.041016 0)"/>
      <use xlink:href="#DejaVuSans-43" transform="translate(489.117188 0)"/>
      <use xlink:href="#DejaVuSans-73" transform="translate(558.941406 0)"/>
      <use xlink:href="#DejaVuSans-20" transform="translate(611.041016 0)"/>
      <use xlink:href="#DejaVuSans-6f" transform="translate(642.828125 0)"/>
      <use xlink:href="#DejaVuSans-6e" transform="translate(704.009766 0)"/>
      <use xlink:href="#DejaVuSans-6c" transform="translate(767.388672 0)"/>
      <use xlink:href="#DejaVuSans-79" transform="translate(795.171875 0)"/>
      <use xlink:href="#DejaVuSans-20" transform="translate(854.351562 0)"/>
      <use xlink:href="#DejaVuSans-28" transform="translate(886.138672 0)"/>
      <use xlink:href="#DejaVuSans-72" transform="translate(925.152344 0)"/>
      <use xlink:href="#DejaVuSans-3d" transform="translate(966.265625 0)"/>
      <use xlink:href="#DejaVuSans-30" transform="translate(1050.054688 0)"/>
      <use xlink:href="#DejaVuSans-2e" transform="translate(1113.677734 0)"/>
      <use xlink:href="#DejaVuSans-35" transform="translate(1145.464844 0)"/>
      <use xlink:href="#DejaVuSans-34" transform="translate(1209.087891 0)"/>
      <use xlink:href="#DejaVuSans-29" transform="translate(1272.710938 0)"/>
     </g>
    </g>
   </g>
   <g id="legend_2">
    <g id="patch_8">
     <path d="M 667.929375 237.681969 
L 768.309375 237.681969 
Q 771.109375 237.681969 771.109375 234.881969 
L 771.109375 173.343219 
Q 771.109375 170.543219 768.309375 170.543219 
L 667.929375 170.543219 
Q 665.129375 170.543219 665.129375 173.343219 
L 665.129375 234.881969 
Q 665.129375 237.681969 667.929375 237.681969 
z
" style="fill: #ffffff; opacity: 0.8; stroke: #cccccc; stroke-linejoin: miter"/>
    </g>
    <g id="line2d_71">
     <path d="M 670.729375 181.881031 
L 684.729375 181.881031 
L 698.729375 181.881031 
" style="fill: none; stroke: #000000; stroke-width: 1.5; stroke-linecap: square"/>
     <defs>
      <path id="ma07a3208da" d="M 0 7 
C 1.856422 7 3.637059 6.262436 4.949747 4.949747 
C 6.262436 3.637059 7 1.856422 7 0 
C 7 -1.856422 6.262436 -3.637059 4.949747 -4.949747 
C 3.637059 -6.262436 1.856422 -7 0 -7 
C -1.856422 -7 -3.637059 -6.262436 -4.949747 -4.949747 
C -6.262436 -3.637059 -7 -1.856422 -7 0 
C -7 1.856422 -6.262436 3.637059 -4.949747 4.949747 
C -3.637059 6.262436 -1.856422 7 0 7 
z
" style="stroke: #000000"/>
     </defs>
     <g>
      <use xlink:href="#ma07a3208da" x="684.729375" y="181.881031" style="stroke: #000000"/>
     </g>
    </g>
    <g id="text_23">
     <!-- $P_{rut} - E_1$ -->
     <g transform="translate(709.929375 186.781031) scale(0.14 -0.14)">
      <defs>
       <path id="DejaVuSans-Oblique-50" d="M 1081 4666 
L 2541 4666 
Q 3178 4666 3512 4369 
Q 3847 4072 3847 3500 
Q 3847 2731 3353 2303 
Q 2859 1875 1966 1875 
L 1172 1875 
L 806 0 
L 172 0 
L 1081 4666 
z
M 1613 4147 
L 1275 2394 
L 2069 2394 
Q 2606 2394 2893 2669 
Q 3181 2944 3181 3456 
Q 3181 3784 2986 3965 
Q 2791 4147 2438 4147 
L 1613 4147 
z
" transform="scale(0.015625)"/>
       <path id="DejaVuSans-Oblique-72" d="M 2853 2969 
Q 2766 3016 2653 3041 
Q 2541 3066 2413 3066 
Q 1953 3066 1609 2717 
Q 1266 2369 1153 1784 
L 800 0 
L 225 0 
L 909 3500 
L 1484 3500 
L 1375 2956 
Q 1603 3259 1920 3421 
Q 2238 3584 2597 3584 
Q 2691 3584 2781 3573 
Q 2872 3563 2963 3538 
L 2853 2969 
z
" transform="scale(0.015625)"/>
       <path id="DejaVuSans-Oblique-75" d="M 428 1388 
L 838 3500 
L 1416 3500 
L 1006 1409 
Q 975 1256 961 1147 
Q 947 1038 947 966 
Q 947 700 1109 554 
Q 1272 409 1569 409 
Q 2031 409 2368 721 
Q 2706 1034 2809 1563 
L 3194 3500 
L 3769 3500 
L 3091 0 
L 2516 0 
L 2631 550 
Q 2388 244 2052 76 
Q 1716 -91 1338 -91 
Q 878 -91 622 161 
Q 366 413 366 863 
Q 366 956 381 1097 
Q 397 1238 428 1388 
z
" transform="scale(0.015625)"/>
       <path id="DejaVuSans-Oblique-74" d="M 2706 3500 
L 2619 3053 
L 1472 3053 
L 1100 1153 
Q 1081 1047 1072 975 
Q 1063 903 1063 863 
Q 1063 663 1183 572 
Q 1303 481 1569 481 
L 2150 481 
L 2053 0 
L 1503 0 
Q 991 0 739 200 
Q 488 400 488 806 
Q 488 878 497 964 
Q 506 1050 525 1153 
L 897 3053 
L 409 3053 
L 500 3500 
L 978 3500 
L 1172 4494 
L 1747 4494 
L 1556 3500 
L 2706 3500 
z
" transform="scale(0.015625)"/>
       <path id="DejaVuSans-2212" d="M 678 2272 
L 4684 2272 
L 4684 1741 
L 678 1741 
L 678 2272 
z
" transform="scale(0.015625)"/>
       <path id="DejaVuSans-Oblique-45" d="M 1081 4666 
L 4031 4666 
L 3928 4134 
L 1606 4134 
L 1338 2753 
L 3566 2753 
L 3463 2222 
L 1234 2222 
L 909 531 
L 3284 531 
L 3181 0 
L 172 0 
L 1081 4666 
z
" transform="scale(0.015625)"/>
      </defs>
      <use xlink:href="#DejaVuSans-Oblique-50" transform="translate(0 0.09375)"/>
      <use xlink:href="#DejaVuSans-Oblique-72" transform="translate(60.302734 -16.3125) scale(0.7)"/>
      <use xlink:href="#DejaVuSans-Oblique-75" transform="translate(89.082031 -16.3125) scale(0.7)"/>
      <use xlink:href="#DejaVuSans-Oblique-74" transform="translate(133.447266 -16.3125) scale(0.7)"/>
      <use xlink:href="#DejaVuSans-2212" transform="translate(183.110352 0.09375)"/>
      <use xlink:href="#DejaVuSans-Oblique-45" transform="translate(286.381836 0.09375)"/>
      <use xlink:href="#DejaVuSans-31" transform="translate(349.56543 -16.3125) scale(0.7)"/>
     </g>
    </g>
    <g id="line2d_72">
     <path d="M 670.729375 202.712594 
L 684.729375 202.712594 
L 698.729375 202.712594 
" style="fill: none; stroke: #000000; stroke-width: 1.5; stroke-linecap: square"/>
     <defs>
      <path id="m73e6983d1a" d="M -7 7 
L 7 7 
L 7 -7 
L -7 -7 
z
" style="stroke: #000000; stroke-linejoin: miter"/>
     </defs>
     <g>
      <use xlink:href="#m73e6983d1a" x="684.729375" y="202.712594" style="stroke: #000000; stroke-linejoin: miter"/>
     </g>
    </g>
    <g id="text_24">
     <!-- $P_{rut} - E_1^\prime$ -->
     <g transform="translate(709.929375 207.612594) scale(0.14 -0.14)">
      <defs>
       <path id="Cmsy10-30" d="M 225 347 
Q 184 359 184 409 
L 966 3316 
Q 1003 3434 1093 3506 
Q 1184 3578 1300 3578 
Q 1450 3578 1564 3479 
Q 1678 3381 1678 3231 
Q 1678 3166 1644 3084 
L 488 319 
Q 466 275 428 275 
Q 394 275 320 306 
Q 247 338 225 347 
z
" transform="scale(0.015625)"/>
      </defs>
      <use xlink:href="#DejaVuSans-Oblique-50" transform="translate(0 0.584375)"/>
      <use xlink:href="#DejaVuSans-Oblique-72" transform="translate(60.302734 -15.821875) scale(0.7)"/>
      <use xlink:href="#DejaVuSans-Oblique-75" transform="translate(89.082031 -15.821875) scale(0.7)"/>
      <use xlink:href="#DejaVuSans-Oblique-74" transform="translate(133.447266 -15.821875) scale(0.7)"/>
      <use xlink:href="#DejaVuSans-2212" transform="translate(183.110352 0.584375)"/>
      <use xlink:href="#DejaVuSans-Oblique-45" transform="translate(286.381836 0.584375)"/>
      <use xlink:href="#Cmsy10-30" transform="translate(356.582201 38.865625) scale(0.7)"/>
      <use xlink:href="#DejaVuSans-31" transform="translate(349.56543 -26.759375) scale(0.7)"/>
     </g>
    </g>
    <g id="line2d_73">
     <path d="M 670.729375 224.270406 
L 684.729375 224.270406 
L 698.729375 224.270406 
" style="fill: none; stroke: #000000; stroke-width: 1.5; stroke-linecap: square"/>
     <defs>
      <path id="m71b44bf69d" d="M 0 -7 
L -7 7 
L 7 7 
z
" style="stroke: #000000; stroke-linejoin: miter"/>
     </defs>
     <g>
      <use xlink:href="#m71b44bf69d" x="684.729375" y="224.270406" style="stroke: #000000; stroke-linejoin: miter"/>
     </g>
    </g>
    <g id="text_25">
     <!-- $P_{rut} - E_2$ -->
     <g transform="translate(709.929375 229.170406) scale(0.14 -0.14)">
      <use xlink:href="#DejaVuSans-Oblique-50" transform="translate(0 0.09375)"/>
      <use xlink:href="#DejaVuSans-Oblique-72" transform="translate(60.302734 -16.3125) scale(0.7)"/>
      <use xlink:href="#DejaVuSans-Oblique-75" transform="translate(89.082031 -16.3125) scale(0.7)"/>
      <use xlink:href="#DejaVuSans-Oblique-74" transform="translate(133.447266 -16.3125) scale(0.7)"/>
      <use xlink:href="#DejaVuSans-2212" transform="translate(183.110352 0.09375)"/>
      <use xlink:href="#DejaVuSans-Oblique-45" transform="translate(286.381836 0.09375)"/>
      <use xlink:href="#DejaVuSans-32" transform="translate(349.56543 -16.3125) scale(0.7)"/>
     </g>
    </g>
   </g>
   <g id="line2d_74">
    <defs>
     <path id="m6d608690e4" d="M 0 7 
C 1.856422 7 3.637059 6.262436 4.949747 4.949747 
C 6.262436 3.637059 7 1.856422 7 0 
C 7 -1.856422 6.262436 -3.637059 4.949747 -4.949747 
C 3.637059 -6.262436 1.856422 -7 0 -7 
C -1.856422 -7 -3.637059 -6.262436 -4.949747 -4.949747 
C -6.262436 -3.637059 -7 -1.856422 -7 0 
C -7 1.856422 -6.262436 3.637059 -4.949747 4.949747 
C -3.637059 6.262436 -1.856422 7 0 7 
z
" style="stroke: #000000; stroke-opacity: 0.95"/>
    </defs>
    <g clip-path="url(#pfa0862e775)">
     <use xlink:href="#m6d608690e4" x="385.941146" y="383.100185" style="fill: #702b24; fill-opacity: 0.95; stroke: #000000; stroke-opacity: 0.95"/>
    </g>
   </g>
   <g id="line2d_75">
    <defs>
     <path id="m78263bd491" d="M 0 7 
C 1.856422 7 3.637059 6.262436 4.949747 4.949747 
C 6.262436 3.637059 7 1.856422 7 0 
C 7 -1.856422 6.262436 -3.637059 4.949747 -4.949747 
C 3.637059 -6.262436 1.856422 -7 0 -7 
C -1.856422 -7 -3.637059 -6.262436 -4.949747 -4.949747 
C -6.262436 -3.637059 -7 -1.856422 -7 0 
C -7 1.856422 -6.262436 3.637059 -4.949747 4.949747 
C -3.637059 6.262436 -1.856422 7 0 7 
z
" style="stroke: #000000; stroke-opacity: 0.95"/>
    </defs>
    <g clip-path="url(#pfa0862e775)">
     <use xlink:href="#m78263bd491" x="273.180884" y="365.384888" style="fill: #e35c0a; fill-opacity: 0.95; stroke: #000000; stroke-opacity: 0.95"/>
    </g>
   </g>
   <g id="line2d_76">
    <defs>
     <path id="mf6c14c27dc" d="M 0 7 
C 1.856422 7 3.637059 6.262436 4.949747 4.949747 
C 6.262436 3.637059 7 1.856422 7 0 
C 7 -1.856422 6.262436 -3.637059 4.949747 -4.949747 
C 3.637059 -6.262436 1.856422 -7 0 -7 
C -1.856422 -7 -3.637059 -6.262436 -4.949747 -4.949747 
C -6.262436 -3.637059 -7 -1.856422 -7 0 
C -7 1.856422 -6.262436 3.637059 -4.949747 4.949747 
C -3.637059 6.262436 -1.856422 7 0 7 
z
" style="stroke: #000000; stroke-opacity: 0.95"/>
    </defs>
    <g clip-path="url(#pfa0862e775)">
     <use xlink:href="#mf6c14c27dc" x="320.314864" y="372.806862" style="fill: #e61a1a; fill-opacity: 0.95; stroke: #000000; stroke-opacity: 0.95"/>
    </g>
   </g>
   <g id="line2d_77">
    <defs>
     <path id="mdee94011bc" d="M 0 7 
C 1.856422 7 3.637059 6.262436 4.949747 4.949747 
C 6.262436 3.637059 7 1.856422 7 0 
C 7 -1.856422 6.262436 -3.637059 4.949747 -4.949747 
C 3.637059 -6.262436 1.856422 -7 0 -7 
C -1.856422 -7 -3.637059 -6.262436 -4.949747 -4.949747 
C -6.262436 -3.637059 -7 -1.856422 -7 0 
C -7 1.856422 -6.262436 3.637059 -4.949747 4.949747 
C -3.637059 6.262436 -1.856422 7 0 7 
z
" style="stroke: #000000; stroke-opacity: 0.95"/>
    </defs>
    <g clip-path="url(#pfa0862e775)">
     <use xlink:href="#mdee94011bc" x="635.60259" y="457.712386" style="fill: #0066cc; fill-opacity: 0.95; stroke: #000000; stroke-opacity: 0.95"/>
    </g>
   </g>
   <g id="line2d_78">
    <defs>
     <path id="m6e77f63cce" d="M -7 7 
L 7 7 
L 7 -7 
L -7 -7 
z
" style="stroke: #000000; stroke-opacity: 0.95; stroke-linejoin: miter"/>
    </defs>
    <g clip-path="url(#pfa0862e775)">
     <use xlink:href="#m6e77f63cce" x="382.4771" y="142.257729" style="fill: #702b24; fill-opacity: 0.95; stroke: #000000; stroke-opacity: 0.95; stroke-linejoin: miter"/>
    </g>
   </g>
   <g id="line2d_79">
    <defs>
     <path id="m1e83428074" d="M -7 7 
L 7 7 
L 7 -7 
L -7 -7 
z
" style="stroke: #000000; stroke-opacity: 0.95; stroke-linejoin: miter"/>
    </defs>
    <g clip-path="url(#pfa0862e775)">
     <use xlink:href="#m1e83428074" x="259.531098" y="300.492842" style="fill: #e35c0a; fill-opacity: 0.95; stroke: #000000; stroke-opacity: 0.95; stroke-linejoin: miter"/>
    </g>
   </g>
   <g id="line2d_80">
    <defs>
     <path id="m0826e7b727" d="M -7 7 
L 7 7 
L 7 -7 
L -7 -7 
z
" style="stroke: #000000; stroke-opacity: 0.95; stroke-linejoin: miter"/>
    </defs>
    <g clip-path="url(#pfa0862e775)">
     <use xlink:href="#m0826e7b727" x="322.698238" y="282.12057" style="fill: #e61a1a; fill-opacity: 0.95; stroke: #000000; stroke-opacity: 0.95; stroke-linejoin: miter"/>
    </g>
   </g>
   <g id="line2d_81">
    <defs>
     <path id="mb79a833fc5" d="M -7 7 
L 7 7 
L 7 -7 
L -7 -7 
z
" style="stroke: #000000; stroke-opacity: 0.95; stroke-linejoin: miter"/>
    </defs>
    <g clip-path="url(#pfa0862e775)">
     <use xlink:href="#mb79a833fc5" x="676.411582" y="404.870107" style="fill: #0066cc; fill-opacity: 0.95; stroke: #000000; stroke-opacity: 0.95; stroke-linejoin: miter"/>
    </g>
   </g>
   <g id="line2d_82">
    <defs>
     <path id="m6aeff9e2cb" d="M 0 -7 
L -7 7 
L 7 7 
z
" style="stroke: #000000; stroke-opacity: 0.95; stroke-linejoin: miter"/>
    </defs>
    <g clip-path="url(#pfa0862e775)">
     <use xlink:href="#m6aeff9e2cb" x="176.675769" y="401.779054" style="fill: #702b24; fill-opacity: 0.95; stroke: #000000; stroke-opacity: 0.95; stroke-linejoin: miter"/>
    </g>
   </g>
   <g id="line2d_83">
    <defs>
     <path id="m33a4b29f7c" d="M 0 -7 
L -7 7 
L 7 7 
z
" style="stroke: #000000; stroke-opacity: 0.95; stroke-linejoin: miter"/>
    </defs>
    <g clip-path="url(#pfa0862e775)">
     <use xlink:href="#m33a4b29f7c" x="223.721875" y="398.266705" style="fill: #e35c0a; fill-opacity: 0.95; stroke: #000000; stroke-opacity: 0.95; stroke-linejoin: miter"/>
    </g>
   </g>
   <g id="line2d_84">
    <defs>
     <path id="m03a1f2c216" d="M 0 -7 
L -7 7 
L 7 7 
z
" style="stroke: #000000; stroke-opacity: 0.95; stroke-linejoin: miter"/>
    </defs>
    <g clip-path="url(#pfa0862e775)">
     <use xlink:href="#m03a1f2c216" x="302.308261" y="256.835757" style="fill: #e61a1a; fill-opacity: 0.95; stroke: #000000; stroke-opacity: 0.95; stroke-linejoin: miter"/>
    </g>
   </g>
   <g id="line2d_85">
    <defs>
     <path id="mac7c54efa8" d="M 0 -7 
L -7 7 
L 7 7 
z
" style="stroke: #000000; stroke-opacity: 0.95; stroke-linejoin: miter"/>
    </defs>
    <g clip-path="url(#pfa0862e775)">
     <use xlink:href="#mac7c54efa8" x="479.835896" y="426.950346" style="fill: #0066cc; fill-opacity: 0.95; stroke: #000000; stroke-opacity: 0.95; stroke-linejoin: miter"/>
    </g>
   </g>
  </g>
 </g>
 <defs>
  <clipPath id="pfa0862e775">
   <rect x="58.579375" y="10.999219" width="719.53" height="508.48"/>
  </clipPath>
 </defs>
</svg>
